<mxfile host="app.diagrams.net" modified="2024-04-25T03:35:14.859Z" agent="Mozilla/5.0 (Windows NT 10.0; Win64; x64) AppleWebKit/537.36 (KHTML, like Gecko) Chrome/124.0.0.0 Safari/537.36" etag="1aTqmKm_3vSYysl6_Gro" version="24.3.0" type="device">
  <diagram name="第 1 页" id="twOYf9QN3VlfJquWv933">
    <mxGraphModel dx="618" dy="328" grid="0" gridSize="10" guides="1" tooltips="1" connect="1" arrows="1" fold="1" page="1" pageScale="1" pageWidth="700" pageHeight="1100" background="#F1F1EA" math="0" shadow="0">
      <root>
        <mxCell id="0" />
        <mxCell id="1" parent="0" />
        <mxCell id="iHRBWM1eIZJ4OxDIeNG5-1" value="" style="rounded=0;whiteSpace=wrap;html=1;fillColor=#96B6C5;strokeColor=#96B6C5;" vertex="1" parent="1">
          <mxGeometry x="1" y="2" width="696" height="154" as="geometry" />
        </mxCell>
        <mxCell id="iHRBWM1eIZJ4OxDIeNG5-2" value="&lt;p style=&quot;line-height: 130%; font-size: 25px;&quot;&gt;品牌名稱&lt;/p&gt;" style="text;html=1;align=center;verticalAlign=middle;whiteSpace=wrap;rounded=0;fontSize=25;fontStyle=1;fontColor=#003870;" vertex="1" parent="1">
          <mxGeometry x="290" y="64" width="120" height="30" as="geometry" />
        </mxCell>
        <mxCell id="iHRBWM1eIZJ4OxDIeNG5-3" value="" style="shape=image;verticalLabelPosition=bottom;labelBackgroundColor=default;verticalAlign=top;aspect=fixed;imageAspect=0;image=data:image/png,iVBORw0KGgoAAAANSUhEUgAAAgAAAAIACAYAAAD0eNT6AAAAAXNSR0IArs4c6QAAFeRJREFUeAHt3buKFEEUBuBfMxMxUNBUBAVfwVtgIBiJGPggYqapphqose9hYGqk+BKuBgaaeN8DEyzLBj27FfSxvoGBZWmGmm//6jqndqY78SBAgAABAgQIECBAgAABAgQIECBAgAABAgQIECBAgAABAgQIECBAgAABAgQIECBAgAABAgQIECBAgAABAgQIECBAgAABAgQIECBAgAABAgQIECBAgAABAgQIECBAgAABAgQIECBAgAABAgQIECBAgAABAgQIECBAgAABAgQIECBAgAABAgQIECBAgAABAgQIECBAgAABAgQIECBAgAABAgQIECBAgAABAgQIECBAgAABAgQIECBAgAABAgQIECBAgAABAgQIECBAgAABAgQIECBAgAABAgQIECBAgAABAgQIECBAgAABAgQIECBAgAABAgQIECBAgAABAgQIECBAgAABAgQIECBAgAABAgQIECBAgAABAgQIECBAgAABAgQIECBAgAABAgQIECBAgAABAgQIECBAgAABAgQIECBAgAABAgQIECBAgAABAgQIECBAgAABAgQIECBAgAABAgQIECBAgAABAgQIECBAgAABAgQIECBAgAABAgQIECBAgAABAgQIECBAgAABAgQIECBAgAABAgQIECBAgAABAgQIECBAgAABAgQIECBAgAABAgQIECBAgAABAgQIECBAgAABAgQIECBAgAABAgQIECBAgAABAgQIECBAgAABAgQIECBAgAABAgQIECBAgAABAgQIECBAgAABAgQIECBAgAABAgQIECBAgAABAgQIECBAgAABAgQIECBAgAABAgQIECBAgAABAgQIECBAgAABAgQIECBAgAABAgQIECBAgAABAgQIECBAgAABAgQIECBAgAABAgQIECBAgAABAgQIECBAgAABAgQIECBAgAABAgQIECBAgAABAgQIECBAgAABAgQIECBAgAABAgQIECBAgAABAgQIECBAgAABAgQIECBAgAABAgQIECBAgAABAgQIECBAgAABAgQIECBAgAABAgQIECBAgAABAgQIECBAgAABAgQIECBAgAABAgQIECBAgAABAgQIECBAgAABAgQIECBAgAABAgQIECBAgAABAgQIECBAgAABAgQIECBAgAABAgQIECBAgAABAgQIECBAgAABAgQIECBAgAABAgQIECBAgAABAgQIECBAgAABAgQIECBAgAABAgQIECBAgAABAgQIECBAgAABAgQIECBAgAABAgQIECBAgAABAgQIECBAgAABAgQIECBAgAABAgQIECBAgAABAgQIECBAgAABAgQIECBAgAABAgQIECBAgAABAgQIECBAgAABAgQIECBAgAABAgQIECBAgAABAgQIECBAgAABAgQIECBAgAABAgQIECBAgAABAgQIECBAgAABAgQIECBAgAABAgQIECBAgAABAgQIECBAgAABAgQIECBAgAABAgQIECBAgAABAgQIECBAgAABAgQIECBAgAABAgQIECBAgAABAgQIECBAgAABAgQIECBAgAABAgQIECBAgAABAgQIECBAgAABAgQIECBAgAABAgQIECBAgAABAgQIECBAgAABAgQIECBAgAABAgQIECBAgAABAgQIECBAgAABAgQIECBAgAABAgQIECBAgAABAgQIECBAgAABAgQIECBAgAABAgQIECBAgAABAgQIECBAgAABAgQIECBAgAABAgQIECBAgAABAgQIECBAgAABAgQIECBAgAABAgQIECBAgAABAgQIECBAgAABAgQIECBAgAABAgQIECBAgAABAgQIECBAgAABAgQIECBAgAABAgQIECBAgAABAgQIECBAgAABAgQIECBAgAABAgQIECBAgAABAgQIECBAgAABAgQIECBAgAABAgQIECBAgAABAgQIECBAgAABAgQIECBAgAABAgQIECBAgAABAgQIECBAgAABAgQIECBAgAABAgQIECBAgAABAgQIECBAgAABAgQIECBAgAABAgQIECBAgAABAgQIECBAgAABAgQIECBAgAABAgQIECBAgAABAgQIECBAgAABAgQIECBAgAABAgQIECBAgAABAgQIECBAgAABAgQIECBAgAABAgQIECBAgAABAgQIzCBwPMmlJLeT3POc3uBGknMzBN97JECAwKwCl3dP9K+S7CT568lgXwY+JnmQ5NSsE8T7JkCAwP8mcCLJ8yS/9p3wFQEKoYMy8CnJ/f9tEng/BAgQmE3g9O5W/zsLv27/EBl4Ottk8X4JECDwvwhU52/x1+Uf1OUv/d2j/2UyeB8ECBCYSeDZIbq+pQuD4+YoLH4nuT7TpPFeCRAg0F3gYpKfCgBb/wMy8CFJfXPEgwABAgQaCNSn/XXpDEZl4GaDzBsiAQIEpheobu2LAkABNDADL6efVQAIECDQQKC2/0d1fl6HZWXgfYPcGyIBAgSmF7ilAFAADc7A1+lnFQACBAg0ELgz+ORvF8AuwI8GuTdEAgQITC9Q13a3aDMYmYG6OqAHAQIECKxc4IwCQAE0OANvVp55wyNAgACBjUDd2GVkB+i15vZ8bGYRIECAQA+BhwoABdCgDNTVAC/0iL1REiBAgMDJJJ8HLQC6/7m7/9emEwECBAj0ErirALALcMQM7CQ52yv2RkuAAAECJfDkiAuA7n/e7v97kiumEQECBAj0FDiWpG7p+kchYDdgiwzU1/6u9oy8URMgQIDAXoFrm8u56ujn7eiX/O3rA3/1P3/b/ntnj58JECDQXKB2A+qubi82xcC3LTrCJYuHY3oWF9Xtv93sFJ1vnnHDJ0CAAAECBAgQIECAAAECBAgQIECAAAECBAgQIECAAAECBAgQIECAAAECBAgQIECAAAECBAgQIECAAAECBAgQIECAAAECBAgQIECAAAECBAgQIECAAAECBAgQIECAAAECBAgQIECAAAECBAgQIECAAAECBAgQIECAAAECBAgQIECAAAECBAgQIECAAAECBAgQIECAAAECBAgQIECAAAECBAgQIECAAAECBAgQIECAAAECBAgQIECAAAECBAgQIECAAAECBAgQIECAAAECBAgQIECAAAECBAgQIECAAAECBAgQIECAAAECBAgQIECAAAECBAgQIECAAAECBAgQIECAAAECBAgQIECAAAECBAgQIECAAAECBAgQIECAAAECBAgQIECAAAECBAgQIECAAAECBAgQIECAAAECBAgQIECAAAECBAgQIECAAAECBAgQIECAAAECBAgQIECAAAECBAgQIECAAAECBAgQIECAAAECBAgQIECAAAECBAgQINBI4HiSS0luJ7nnOb3BjSTnGuXXUAkQIEBgS4HLuyf6V0l2kvz1ZLAvAx+TPEhyastcOZwAAQIEVipwIsnzJL/2nfAVAQqhgzLwKcn9lWbZsAgQIEBgocDp3a3+dxZ+3f4hMvB0YcYcRoAAAQIrE6jO3+Kvyz+oy1/6u0cry7ThECBAgMACgWeH6PqWLgyOm6Ow+J3k+oKsOYQAAQIEViJwMclPBYCt/wEZ+JCkvjniQYAAAQINBOrT/rp0BqMycLNB5g2RAAEC0wtUt/ZFAaAAGpiBl9PPKgAECBBoIFDb/6M6P6/DsjLwvkHuDZEAAQLTC9xSACiABmfg6/SzCgABAgQaCNwZfPK3C2AX4EeD3BsiAQIEpheoa7tbtBmMzEBdHdCDAAECBFYucEYBoAAanIE3K8+84REgQIDARqBu7DKyA/Rac3s+NrMIECBAoIfAQwWAAmhQBupqgBd6xN4oCRAgQOBkks+DFgDd/9zd/2vTiQABAgR6CdxVANgFOGIGdpKc7RV7oyVAgACBEnhyxAVA9z9v9/89yRXTiAABAgR6ChxLUrd0/aMQsBuwRQbqa39Xe0beqAkQIEBgr8C1zeVcdfTzdvRL/vb1gb/6n79t/72zx88ECBBoLlC7AXVXtxebYuDbFh3hksXDMT2Li+r23252is43z7jhEyBAgAABAgQIECBAgAABAgQIECBAgAABAgQIECBAgAABAgQIECBAgAABAgQIECBAgAABAgQIECBAgAABAgQIECBAgAABAgQIECBAgAABAgQIECBAgAABAgQIECBAgAABAgQIECBAgAABAgQIECBAgAABAgQIECBAgAABAgQIECBAgAABAgQIECBAgAABAgQIECBAgAABAgQIECBAgAABAgQIECBAgAABAgQIECBAgAABAgQIECBAgAABAgQIECBAgAABAgQIECBAgAABAgQIECBAgAABAgQIECBAgAABAgQIECBAgAABAgQIECBAgAABAgQIECBAgAABAgQIECBAgAABAgQIECBAgAABAgQIECBAgAABAgQIECBAgAABAgQIECBAgAABAgQIECBAgAABAgQIECBAgAABAgQIECBAgAABAgQIECBAgAABAgQIECBAgAABAgQIECBAgAABAgQIECBAgAABAgQIECBAgAABAgQIECBAgAABAgQIEGgkcDzJpSS3k9zznN7gRpJzjfJrqAQIECCwpcDl3RP9qyQ7Sf56MtiXgY9JHiQ5tWWuHE6AAAECKxU4keR5kl/7TviKAIXQQRn4lOT+SrNsWAQIECCwUOD07lb/Owu/bv8QGXi6MGMOI0CAAIGVCVTnb/HX5R/U5S/93aOVZdpwCBAgQGCBwLNDdH1LFwbHzVFY/E5yfUHWHEKAAAECKxG4mOSnAsDW/4AMfEhS3xzxIECAAIEGAvVpf106g1EZuNkg84ZIgACB6QWqW/uiAFAADczAy+lnFQACBAg0EKjt/1Gdn9dhWRl43yD3hkiAAIHpBW4pABRAgzPwdfpZBYAAAQINBO4MPvnbBbAL8KNB7g2RAAEC0wvUtd0t2gxGZqCuDuhBgAABAisXOKMAUAANzsCblWfe8AgQIEBgI1A3dhnZAXqtuT0fm1kECBAg0EPgoQJAATQoA3U1wAs9Ym+UBAgQIHAyyedBC4Duf+7u/7XpRIAAAQK9BO4qAOwCHDEDO0nO9oq90RIgQIBACTw54gKg+5+3+/+e5IppRIAAAQI9BY4lqVu6/lEI2A3YIgP1tb+rPSNv1AQIECCwV+Da5nKuOvp5O/olf/v6wF/9z9+2/97Z42cCBAg0F6jdgLqr24tNMfBti45wyeLhmJ7FRXX7bzc7ReebZ9zwCRAgQIAAAQIECBAgQIAAAQIECBAgQIAAAQIECBAgQIAAAQIECBAgQIAAAQIECBAgQIAAAQIECBAgQIAAAQIECBAgQIAAAQIECBAgQIAAAQIECBAgQIAAAQIECBAgQIAAAQIECBAgQIAAAQIECBAgQIAAAQIECBAgQIAAAQIECBAgQIAAAQIECBAgQIAAAQIECBAgQIAAAQIECBAgQIAAAQIECBAgQIAAAQIECBAgQIAAAQIECBAgQIAAAQIECBAgQIAAAQIECBAgQIAAAQIECBAgQIAAAQIECBAgQIAAAQIECBAgQIAAAQIECBAgQIAAAQIECBAgQIAAAQIECBAgQIAAAQIECBAgQIAAAQIECBAgQIAAAQIECBAgQIAAAQIECBAgQIAAAQIECBAgQIAAAQIECBAgQIAAAQIECBAgQIAAAQIECBAgQIAAAQIECBAgQIAAAQIECBAgQIAAAQIECBAgQIAAAQIECBAgQIAAAQIECBAgQIAAAQIECBAgQIAAAQIECBAgQIAAAQIECBAgQIAAAQIECBAgQIAAAQIECBAgQIAAAQIECBAgQIAAAQIECBAgQIAAAQIECBAgQIAAAQIECBAgQIAAAQIECBAgQIAAAQIECBAgQIAAAQIECBAgQIAAAQIECBAgQIAAAQIECBAgQIAAAQIECBAgQIAAAQIECBAgQIAAAQIECBAgQIAAAQIECBAgQIAAAQIECBAgQIAAAQIECBAgQIAAAQIECBAgQIAAAQIECBAgQIAAAQIECBAgQIAAAQIECBAgQIAAAQIECBAgQIAAAQIECBAgQIAAAQIECBAgQIAAAQIECBAgQIAAAQIECBAgQIAAAQIECBAgQIAAAQIECBAgQIAAAQIECBAgQIAAAQIECBAgQIAAAQIECBAgQIAAAQIECBAgQIAAAQIECBAgQIAAAQIECBAgQIAAAQIECBAgQIAAAQIECBAgQIAAAQIECBAgQIAAAQIECBAgQIAAAQIECBAgQIAAAQIECBAgQIAAAQIECBAgQIAAAQIECBAgQIAAAQIECBAgQIAAAQIECBAgQIAAAQIECBAgQIAAAQIECBAgQIAAAQIECBAgQIAAAQIECBAgQIAAAQIECBAgQIAAAQIECBAgQIAAAQIECBAgQIAAAQIECBAgQIAAAQIECBAgQIAAAQIECBAgQIAAAQIECBAgQIAAAQIECBAgQIAAAQIECBAgQIAAAQIECBAgQIAAAQIECBAgQIAAAQIECBAgQIAAAQIECBAgQIAAAQIECBAgQIAAAQIECBAgQIAAAQIECBAgQIAAAQIECBAgQIAAAQIECBAgQIAAAQIECBAgQIAAAQIECBAgQIAAAQIECBAgQIAAAQIECBAgQIAAAQIECBAgQIAAAQIECBAgQIAAAQIECBAgQIAAAQIECBAgQIAAAQIECBAgQIAAAQIECBAgQIAAAQIECBAgQIAAAQIECBAgQIAAAQIECBAgQIAAAQIECBAgQIAAAQIECBAgQIAAAQIECBAgQIAAAQIECBAgQIAAAQIECBAgQIAAAQIECBAgQIAAAQIECBAgQIAAAQIECBAgQIAAAQIECBAgQIAAAQIECBAgQIAAAQIECBAgQIAAAQIECBAgQIAAAQIECBAgQIAAAQIECBAgQIAAAQIECBAgQIAAAQIECBAgQIAAAQIECBAgQIAAAQIECBAgQIAAAQIECBAgQIAAAQIECBAgQIAAAQIECBAgQIAAAQIECBAgQIAAAQIECBAgQIAAAQIECBAgQIAAAQIECBAgQIAAAQIECBAgQIAAAQIECBAgQIAAAQIECBAgQIAAAQIECBAgQIAAAQIECBAgQIAAAQIECBAgQIAAAQIECBAgQIAAAQIECBAgQIAAAQIECBAgQIAAAQIECBAgQIAAAQIECBAgQIAAAQIECBAgQIAAAQIECBAgQIAAAQIECBAgQIAAAQIECBAgQIAAAQIECBAgQIAAAQIECBAgQIAAAQIECBAgQIAAAQIECBAgQIAAAQIECBAgQIAAAQIECBAgQIAAAQIECBAgQIAAAQIECBAgQIAAAQIECBAgQIAAAQIECBAgQIAAAQIECBAgQIAAAQIECBAgQIAAAQIECBAgQIAAAQIECBAgQIAAAQIECBAgQIAAAQIECBAgQIAAAQIECBAgQIAAAQIECBAgQIAAAQIECBAgQIAAAQIECBAgQIAAAQIECBAgQIAAAQIECBAgQIAAAQIECBAgQIAAAQIECBAgQIAAAQIECBAgQIAAAQIECBAgQIAAAQIECBAgQIAAgS0E/gFqdws70cMj7gAAAABJRU5ErkJggg==;fontColor=#003870;" vertex="1" parent="1">
          <mxGeometry x="606" y="49.75" width="58.5" height="58.5" as="geometry" />
        </mxCell>
        <mxCell id="iHRBWM1eIZJ4OxDIeNG5-4" value="" style="shape=image;verticalLabelPosition=bottom;labelBackgroundColor=default;verticalAlign=top;aspect=fixed;imageAspect=0;image=data:image/png,iVBORw0KGgoAAAANSUhEUgAAAgAAAAIACAYAAAD0eNT6AAAAAXNSR0IArs4c6QAAIABJREFUeAHtnQeYbEW1tj9yBskCikpGQNJBUJIRA6CI4lWicpGMKCqoVwQRASUJGEGCiCAgKFHCVS9KFlSCggnJKDkpmf/vJTPQZ870THfvsFZVvfU855k+3XtXrfXWV6tq7127SiJBAAIQgAAEIAABCEAAAhCAAAQgAAEIQAACEIAABCAAAQhAAAIQgAAEIAABCEAAAhCAAAQgAAEIQAACEIAABCAAAQhAAAIQgAAEIAABCEAAAhCAAAQgAAEIQAACEIAABCAAAQhAAAIQgAAEIAABCEAAAhCAAAQgAAEIQAACEIAABCAAAQhAAAIQgAAEIAABCEAAAhCAAAQgAAEIQAACEIAABCAAAQhAAAIQgAAEIAABCEAAAhCAAAQgAAEIQAACEIAABCAAAQhAAAIQgAAEIAABCEAAAhCAAAQgAAEIQAACEIAABCAAAQhAAAIQgAAEIAABCEAAAhCAAAQgAAEIQAACEIAABCAAAQhAAAIQgAAEIAABCEAAAhCAAAQgAAEIQAACEIAABCAAAQhAAAIQgAAEIAABCEAAAhCAAAQgAAEIQAACEIAABCAAAQhAAAIQgAAEIAABCEAAAhCAAAQgAAEIlEJgbkmvk7SRpJ0lHSDpBElnSfqVpBsl3SXpwZF/T0j6fyP/7PPo93bMDSPn2LmWh+W100jeVoaVRYIABCAAAQhAoEUCM0laTdL2ko6QdJGkO7o689FOvem/t4+UbTaYLatKMttIEIAABCAAAQjUQGCBztX7ByQdJelKSd1X7k138oPmb7ZdIenIzl2E90sy20kQgAAEIAABCPRBYGZJb5d0uKTrJD3vcHU/aMff6/jnJP2+88jgMElv4w5BH7XPIRCAAAQgUBSBeSRtKek0SY8k3OH3GgiMfv+wpFMlbcE8gqL0jbMQgAAEINBFYBZJG0s6UdLjGXf6o53/2L/2uOAcSVtLmr2LCx8hAAEIQAACWRJYceQZuc26H9splvp/Y2GTCV+bZY3jFAQgAAEIFEvAnuvble5ldPqTDnp+PfKIwJiRIAABCEAAAkkSmEvS7k6v6aV+N+EfnRrft3NnYN4kax6jIQABCECgSAILSTpE0qNc8U96xT/ZQMUmRX5N0oJFKgmnIQABCEAgCQLzd6y0q9acZ/JP1mE39btNlLR5AgsnoQSMhAAEIACBIgjM0bnS34cr/spX+/0MHuyuyt68OVBEu8JJCEAAAmEJTCdpM0m3cqu/lc6/e4Bw58gSxNOHVQeGQQACEIBAlgSmSLqajr/1jr97EGCfrxrZGyFLkeEUBCAAAQjEIWC3+w+S9Cydv3vnPzoYsCWHv8vqgnEaCZZAAAIQyI3AJiNb6o52PPyNtZiR7YpoqyuSIAABCEAAArUQmHvkCpMOP1aH36s+bE8F1g+oRfpkAgEIQKBcAm+VdBu3+8Pc7u/V6Y/93iZmvqlc2eI5BCAAAQgMS2CGzon2Tr89Xx7bufD/NJjYVsq2dsBMw4qA8yAAAQhAoCwCttjMxXT82Qx8/k/SomVJGG8hAAEIQGBQAm+WdC+dfzad/+jdGttbYL1BxcDxEIAABCBQBoHtJT1N559d5z86CHhG0sfLkDJeQgACEIBAPwRmHHlWPNpR8DeNZ/zD1pOtGcC8gH5aBsdAAAIQyJjAnJLO56o/26v+XoOE/2XhoIxbNa5BAAIQmITAyzsLx1xL519c5z86KLhe0mKTaISfIQABCEAgMwLLSvo7nX+xnf/oIOBvkpbOTNu4AwEIQAACPQgsz5K+xXf8owMA+2tvCKzYQyt8DQEIQAACmRBYhdf86PzHufPzT0mvy0TjuAEBCEAAAmMIrCbpgXGCf/fVIJ/zfgNgovq9X5INEEkQgAAEIJARgWVGbvVO1AHwW7md/2jd2yJQ9oiIBAEIQAACGRBYkmf+3PYf4M7PnZJek4HucQECEIBA0QRsDfhbBgj+o1eC/C37bsBfJNmeECQIQAACEEiQgC3y89vCOn/bAc+2wv2lpOM6uxnuLWmLzuZGa0taXdISI+++zyvJdjy0f/bZ3oe33+wYO3bLkXMtD8vL8rS8SxoYXS1p9gR1j8kQgAAEiiZgHdtPC+iwHpF0qaSDOosabSxpgQZrfS5J60jaqzNQOKeQtynOHRkkNYiVrCEAAQhAoE4CR2Xa+dtV+G8kfSHIa2srj9wpuCbjOwSH1ylM8oIABCAAgeYIbJdZ52+dvu1pv1PwpWtf0bkrsLOkSzLjb489tmlOruQMAQhAAAJ1EFhT0pOZdEAPSbKd61aqA0zLedhrl/ZY4r5M6uIJSWu0zJDiIAABCECgTwI2a9te4Up9oprdTreJe7P26Xfkw8yHrTKZjGkTIReMDBvbIAABCJRIYPrO7PWLE+/8bXe6zSRNl2kFvk2SDW5SHqBdkHH9ZCo73IIABHInYDPTU+1Yfidpk0I6FhvcbCrpuoTr65O5Nyb8gwAEIJAKgSmSnkqwQ7Fn/LsX+pqZDQS2TnSOwNOSXp9K48BOCEAAArkSmKPzvNxWbUvp6t9m9dsCOzxPlhaSdEKCrxDeLGm2XBsVfkEAAhBIgcARiXX+fxxZTCcFtm3auJ4k61RTGsgd0iYgyoIABCAAgZcIvKGzCM1zCXUaJ0qyOxak8QnYFXVKAzrTnq2MSIIABCAAgRYJWGfxp0Q6/4clfbBFNqkX9SFJxiyFuwF2R2eW1IFjPwQgAIGUCOyXSAdxVecZ96tTAhvEVtuO1zbjSWEQYBsukSAAAQhAoAUCS3Y2pLGV2aJ3Dj9mN7lKarAr65MTqOd/j+ykWMlZToYABCAAgckJ2A5t0Tt/e5ZtixORqhGw1wX3TaC+z6rmJmdDAAIQgMBkBGzL28idv70jvu1kTvD7wAQ+JsnYRq77dw/sFSdAAAIQgEBfBGbsTKazSVdROwFbjMgGKKRmCNhqiZEHATcUuqhTM7VNrhCAAAS6COwQuPO3jsk6KFKzBGwZ4ciDgI826z65QwACECiPgL0/f3fQAQCdf7t6jDwIsN0oZ28XB6VBAAIQyJvAnkE7/2clvT9v9CG9s3UVjH3Ex0FsFhRSMhgFAQikSMCuqP4ZNNh/PEWgmdj8qaCauId9AjJRGG5AAALuBOyKKuKV3jHuZDDg20G1sStVAwEIQAAC1QjMKumugEH+Qkn2VgLJl8BMkn4eUB+3S5rZFw2lQwACEEibgM2qjnb1f5OkedLGmpX180r6c0CdbJUVZZyBAAQg0DKB3wcL7E9KWqVlBhQ3OYHVJNk6DJEGi9dObjZHQAACEIDAeATeEiygW+eyx3iG8l0IAnsF1Mu6IchgBAQgAIHECPwkWEC/SJKtTU+KScD2Xog2H+D0mKiwCgIQgEBcAotIeibQAOA+SWYTKTaBxSTdH0g3tkjUQrGRYR0EIACBWASi3c7dJhYerJmAwHaBBgA8NpqgovgJAhCAwHgEIm36cxm3/serorDf2aOAKwINAuytERIEIAABCPRB4I2BgrctN8us/z4qLdghqwdbKnjNYHwwBwIQgEBIAkcGGgCYLaQ0CURaJfDQNBFiNQQgAIH2CNjt2ygr/z0o6WXtuU5JNROYT9LDQQaTtjIgb5DUXMFkBwEI5EVg/SAB2yZv7ZMX2iK9+XIgPb2hyBrAaQhAAAJ9Eohy+9+uHLn677PSAh9mdwEeCTII4DFAYKFgGgQg4E/gr0GC9Zf8UWBBTQQOCKKpm2vyh2wgAAEIZEdg2SCB2q4Y7cqRlAeB+TtLOD8aRFtL5oEULyAAAQjUS+ATQYL01+t1i9wCEPhGEG3tGoAFJkAAAhAIR+BnQYL0iuHIYFBVAisH0da5VR3hfAhAAAK5EZgxyG1aW/WPlCeBqwIMAuzx0gx54sUrCEAAAsMRWCNAcLZX/z4ynPmclQCBKHsErJoAK0yEAAQg0BqBPQIMAOzVv9lb85iC2iYwR5BXAndv23HKgwAEIBCZwJkBBgAnRgaEbbUQ+GEAnZ1eiydkAgEIQCATAncGCMwfyIQlbvQm8F8BdHZrb/P4BQIQgEBZBBYIEJSflDRXWdiL9HZuSU8F0JtpngQBCECgeAIbBAjIFxRfC+UAuCiA3t5WDm48hQAEINCbwJ4BAvIuvc3jl8wI7BZAb5/JjCnuQAACgQjY1qOvlfR+SRZsbG90u/K5TtLfJN0r6bEAgdBeveMfDNCAjwYsBlgssJhgseHCkVhhMcNih8UQtjEOFNgxBQLjEbDFRdaTtLek8yTZXvYEVRigATRQVQMWSyymfEHSuixkNF745TsItE/AOv11JB0h6R46fAY8aAANtKCB+yXZK7MbS5q5/bBHiRAom8CiHff3Hbl1V3V0z/lcIaIBNDCsBh4auQB5VdkhGe8h0DwBu/32k86tuGdbGOUPGxA4j84EDZSnAYtJZ0hau/kwSAkQKIvACp3JOKfR6XN7Fw2ggQQ0cLEk9jsoq4/C2wYIvELSSZ2Jfc8l0Oi56ivvqo86p857acBils0TsMeVJAhAYAAC9trN1pIeoOPnig8NoIGENWAbbNnmR9MPEP84FALFElhS0i8TbvC9rgj4nqtFNFCuBn7euSOwRLFRHcch0AcBe63GZtUSKGGABtBAbhp4VBIbbvXREXBIWQTsfX57rY9n/QT93II+/qDpbg08P/La4IxlhXi8hcD4BGx3sgibk3Q3Uj4TtNEAGmhSA7bkMLtvjt8n8G0hBOaTdAW3/HnkgQbQQIEauEbSgoXEetyEwFQEFulstnFDgY2+yasK8uaqFQ2kpYGbJNnrziQIFEPABH8rnT9XfWgADaAB3cJ6AcX0fcU7Oo+k39PoCfxoAA2ggRc1YHdD5y2+dwBA1gRmlfQrGv2LjZ7btWndrqW+qK8mNXCJJIuRJAhkSeBUOn86fzSABtBATw2cnGXkx6niCXycRt+z0Td5VUHeXLWigbQ0sHPxvQUAsiKwhqQnGQAwAEADaAANTKoBi5WrZ9UD4EyxBGzSn81y5SoEBmgADaCB/jTwV0m2SBoJAkkT+CadP4MfNIAG0MDAGjgy6ciP8cUTsFv/z9LwB274XCX1d5UEJzjlrAHbG2Wt4nsRACRJwDa7+C2dP50/GkADaGBoDVwniY2DkuwCyzZ6Fxr90I0+56safOOqHQ0MpoGdyu5K8D41AraYxZ0MABgAoAE0gAYqa+BuSbOl1glgb7kEPkmjr9zouUoa7CoJXvDKWQO7ldud4HlKBGykehcDAAYAaAANoIHaNGB3AWZPqSPA1jIJ7ECjr63R53xFg29csaOBwTSwXZldCl6nROBaBgAMANAAGkADtWvg6pQ6Amwtj8AUGn3tjZ6rpMGukuAFr5w1sFp53Qoep0LgaAYADADQABpAA41p4NupdAbYWRYBW6ziweAN/3pJh0jaUNKKkhaWNH1Z1YS3EIDACAFr+xYDLBZYTDhUksWIyHcQHmBhIPQbkcCbgzYcW07zHEncOouoGmyCQDwCNiA4UdIzQWPaevGQYVHpBGz0HG3kfLmkpUuvGPyHAASGIrCspCsDxrWvDeUNJ0GgQQJ/CtRQ7Kr/S9wqa7C2yRoCZRCwR5tflvR8oPj2xzLQ42UqBBYP1DisoW6fCjjshAAEkiCwY7BBwCuSoIaRRRDYNNAAYOciiOMkBCDQNgFbjjfKY85N2nae8iDQi8ABQRqGTdwhQQACEGiKwA+DxLr9m3KQfCEwKIGLAjQK231w3kEN53gIQAACAxB4maTbA8S7CwewmUMh0CiB+wM0iK0a9ZDMIQABCLxAYJsA8c5iLgkC7gRsIQ3v52J29T+zOwkMgAAESiAwU5C7AAuVABsfYxNYP8AA4LOxEWEdBCCQGYHPB4h7FntJEHAlYK/HeN8BsJW7SBCAAATaIrBygLhnW6+TIOBK4OvODcGehbGev6sEKBwCxRGYTtJ9zrHv8OKo43A4Ahc4N4KfhiOCQRCAQAkELPZ43v202EuCgCuB25wbAe/DulY/hUOgWAJfcY59txZLHsdDEJgjwPKYW4YggREQgEBpBOzVY887ALbs+ZylQcffOARsi13PBmBlT4mDA0sgAIGCCKwRIP6tWhBvXA1GYAvnBmAj4LmCMcEcCECgDAJ29e29S+DmZaDGy4gEbJtMzzsAtiQnCQIQgIAXgTucY+B+Xo5TLgROdxa/7UFAggAEIOBF4GLnGHial+OUC4EbncV/BFUAAQhAwJHAkc4x8AZH3ym6YAIzSHrSWfw7Fcwf1yEAAX8COzvHwKckzeiPAQtKI7C0s/Bt7sGbS4OOvxCAQCgCbwkQB5cKRQRjiiDwngDCf3kRpHESAhCISmCRAHFw46hwsCtfAns6C/+hfNHiGQQgkBABi0Web0N9JiFWmJoJgeOcRX9FJhxxAwIQSJvAlc6x8Ni08WF9igSsA/Yc9doAhAQBCEDAm8DxzrHwcm8AlF8egQedRW+PIEgQgAAEvAns5RwLeRzqrYDCyrfJd55X/1a2TUIkQQACEPAm8N4A8XBhbwiUXw4Be/3OewBgryGSIAABCHgTWCZAPHyTNwTKL4eALcDjOQBg8YtytIanEIhOwBbi8V4UbcfokLAvHwK2BK/nAMCWICZBAAIQiELgD84x8etRQGBH/gRsEx7PAYBtQkSCAAQgEIXAj51j4oVRQGBH/gRsG17PAYBtQ0yCAAQgEIXA/s4x8bYoILAjbwJzSnreWexb5I0Y7yAAgcQIbOkcEy0mW2wmQaBRAlOchW53HlZr1EMyhwAEIDAYgdUDxEWzgQSBRgkw0m0UL5lDAAIJEpiDO6MJ1homD0yAZ10DI+MECECgAALMjSqgkkt38QznW10XlF4B+A8BCIQkYDPxPSdH25sIJAg0SoD3XRvFS+YQgECiBFgfJdGKw+z+CLDiVX+cOAoCECiPACukllfnRXm8rPMtLru9tn5RxHEWAhBIhYCtx+/5CMDKtn0JSBBohAC7XjWClUwhAIEMCLBLagaViAu9CXzWeYTLvte964ZfIAABfwIPOsfIvfwRYEGuBE5wFvdluYLFLwhAIAsClzvHyOOzoIgTIQlc6SzuY0NSwSgIQAACLxA4zjlGXkFFQKApAnYL3nOSy2eacox8IQABCNRAYE/nGMlj0hoqkSymJbCos7Bt4LHRtGbxDQQgAIEwBDYOECcXCUMDQ7Ih8JYAwl4qG5o4AgEI5Ehg6QBx8s05gsUnXwK7OAv7SUm2EBEJAhCAQFQCM0iyWOX5qHTnqHCwK10CRzmL+vp00WE5BCBQEIEbnGPlkQWxxtWWCFzsLOrTWvKTYiAAAQhUIXC6c6y8qIrxnAuB8Qjc6SzqL41nFN9BAAIQCEZgP+dYeUcwHpiTOIG5JD3vLOoPJ84Q8yEAgTIIbO4cKy1Wz10Garxsg8AazoK2CTWrtuEoZUAAAhCoSGC1APFySkUfOB0CLxLY2lnQz0ma40Vr+AABCEAgLoHZJVnM8nwTYKu4eLAsNQIHOIv576kBw14IQKBoArc6x8yvFE0f52slcKazmH9WqzdkBgEIQKBZAhc4x8wzmnWP3EsicJOzmA/LDPb0kl4paXlJqw/xb2VJS0iy/cfnzIwN7kAgBwKHO8fMP+YAER/8Ccwk6WlnMW/vj6GyBTYp56uSrm5gpTDbg/y3kmzUv7ekd0iar7LFZAABCAxLYAfnmGkx22I3CQKVCCznLGSbSLNeJQ98T36fpGsdGNqrQL/plLuPJJuVTIIABNojsL5Dmx876XDZ9tylpFwJWAc2Vlht/3/BBOEuLsl79cTuerJbgp+SlCLLBKsfkwsnsFCAuLlJ4XWA+zUQ+JyzkB+owYe2s9hAktnd3QFH+fyUpKNH5hC0zYXyIFASgfudY8BnS4KNr80Q+L6ziC9txq3Gct1UknWyUTr8XnY8I+kESYs1RoKMIVA2gcuc44C1bxIEKhGwSWu9OpE2vj+mkvXtnvymBib4Nc34MUl7SZq5XVSUBoHsCXzPOXZelT1hHGycwCPOIrbn1ikkeyXvH86sqgwWbAvT16UAGhshkAiBTzvHA4vd0yXCCjMDErDbw1U6lTrO3TAgl/FMsu2K6/DXM48nRyYKEjTGq2G+g8BgBDYKEBMWHcxkjobASwTeFkDAtuBN9LR2AE51DhxsMGPrmZMgAIHhCSwZIC68dXjzObN0Ars6C/gJSTMkUAlnO3Oqs/MfzesaJggmoDxMjEzAVvy0GDbapjz+7hIZELbFJvANZ/FeFxvPf6xbWJLNqPdo3E2XaRuapHAHJgGZYGKhBK53jg1HFcodt2sg8HNn8f6oBh+azsJ7yc+mBwG3SbJbmSQIQGBwAqc6x9D/HdxkzoDACwTuchbvvglUxMnOjJoeAFj+th2zveVAggAEBiPwJef4cOdg5nI0BF4gMLckW0++jQ6mVxkfSqAyvG/x9WJX9/c2J4CdBxMQJCaGIvBh5xhqcWCeUEQwJgkCawYQrm17Gz09FIBT3Z19r/zO5L3i6HLEvmAEVgkQH14fjAnmJEBgG2fhPpfIq2i5TgDsNQjYPQHtYiIEohCYrbNFt8WyXu2pje+3jgIDO9IhcKCzaG9JBJX3az5tBJDuMmyfgymJ1A1mQiACAZtD092G2v58QAQI2JAWgZ84i/a8RHDd7cyp7WBi5dmywTMlUj+YCQFvAuc7xwh7dEeCwEAEbnYW7aEDWet38K+dOXkMAKxM20CIBAEITE7gMOcYcdPkJnIEBF4iYFd3TzuL9mMvmRP60+HOnLwGAP+StHjomsE4CMQgsL1zjLBYzh27GFpIworlnQVrndo6SZCSbLMir07Yu9yUtmpORE6YmSGBdQPEiOUy5IpLDRHYNIBgF2jIt7qztZH1fQF4eQwGnpW0TN1AyQ8CmRFYMEB8eF9mTHGnQQKfdxbs/Q361kTWNsvWowOOUOaxTQAlTwhkRsBimmd7/VxmPHGnQQInOovVJtallBaS9LAzM6/g8m9J86dUWdgKAQcClzrHh+87+EyRiRL4jbNYj06Qm/fWyV4DACv3UwnWFyZDoE0CNl/Gs41e3aazlJUugekkPeIs1j0SxGfcbPdCz0buVba9MkqCAAR6E7BBslf7tHIfZRnv3pXDLy8ReIWzUE2s737JnKQ+2bKfVwXg5xFoVkyqpjAWAu0SiPC20GLtukxpKRJ4e4AO7DUpghuxeWFJlwVg2PYgYO+E6wzTIdA0gSUCxIS3Ne0k+adPYDdnodra+jMkjnEWScc7c2x7AHBt4nWG+RBoksD0kmzCbNvtsrs8m6dEgsCEBL7pLNLfT2hdWj/aegreSyp3B4AmPz8vye5+kCAAgfEJXOccW78xvll8C4GXCPzCWaSnvGRKFp9mlLSDJO/G32TnP5r3FlnUGE5AoBkC3pOEf96MW+SaEwHv3e32yQnmGF+WlbSTpO9IuqAz2dFezblmiH83SnrQeaA22ul3/+Vd4zEVzn8h0EVgX+c2e1eXLXyEwDQEXuYsUOtM/msaq/hiPAL22uEUST+QZLffuztir882eDS7SBCAwLQEPhSgnVqMJ0FgXAJrBRDo68a1jC8nIrCRpMcD1J0NPLaRZLON+ZcPg7dKWl3SUiPzPOx1V9LgBFYO0EbXHNxsziiFwEecBfqcJILLcGrbONCdAK87EJTbzp0gu+N0i6SzJR0oaXO2hu6r0c4qyTbQ8tSpDdBJEBiXwEHO4vzbuFbxZb8ETnauP8/ARtm+HYvxv16SxZD1MniVt982N+hxNnDy1KoN2EgQGJfAWc7iPHdcq/iyXwIRHuF4BjfK9u1cuvnfIel/eDV0mqZ7nnOM/ek0FvEFBEYI/MlZnIdQE5UI2AS8e5zrsLsT4HOcDtmrLp7qzB04SZI9/yZJhzq3T/btQIXjEpi5M2J/xlmc241rGV8OQsCCrVewp1zY99KAze85rbNC5qsGEXOGx37MuX1ajLeVSkkQmIrACs7CtMCx9lQW8Z9hCNgkn15BmO9h460Be1vF1vqwCXElpnUCtM/Xlggenycm8P4Awpx/YhP5tQ8Ci/I2AAOgAG15soHGHySV+MqvxbjJ2DT9uy1RToLAVAS+4CzMe6eyhv9UIWDBtekgQv4wrqoB2/hr9wIXj7rPuX3a5EwSBKYi4P3s+JKprOE/VQgc7hxgqnYMnF/W4MLmBpT0SOBXzu3TVg8lQWAqArYmvWfg/e5U1vCfKgQ2dK5LTx1Rtm87Hpb//0map4roEzr3aOf2+ZuEWGFqCwTs9bHHnEX5yRb8LKWIOSQ96Vyfw3YEnJdmB15HvdkmV4sV0Ej3cG6bFuvZs6MAofXr4uLOgrTg8c5+jeW4vgjYFVUdQZk84NimBmw10EX6Uni6B70rQNt8Zbr4sLxuAhsEEOSr63aq8Py8J3W22WlQVl6DlGslzZlx+31NgHj79oz54tqABGwmrmcQ/Zek6Qe0mcMnJmC7fnnWKWXDv4oGzpc048QST/ZXi3UW86rwqXrux5Olh+G1E/i2sxh/W7tHZDiDpAed67VqkOJ8307Cm/+3Mm7Gv3NumzmzzVg2zbj2S2cx2i52pPoJnOFcr94dCOWnP4D4YP3NIkSOpzi3zV+EoIARIQj8w1mMXwxBIT8jdnSuVzrg9Dtg7zq0RXNynBRoyyF7srVNw0gQ0MuchWiNYDPqoRECSwaoW88gR9m+nUxd/C/M8LU1u7NRF59h85m3kahDpkkReEMAIa6UFLG0jLXXqoYNEJwHuygasE2uckq2D4I327VyAoovwxHY1lmIzxa2DOhwtTT8WbbConegoXzqoKoG7pQ02/DNINyZtvSxxb6qXKqc/9FwVDCodQJfcxbhX1r3uKwCP+Bcv1UCFOf6dhDR+H8qs6b7V+e2+dXMeOLOEATOdhbhOUPYzCn9E7DnfN5XGtE6EuxJc2Bhr7Xm9Nz6XOfYe1b/YYQjcyVgV+CeAdHuQJCaJXCVcx176ouyfds5+l+yAAAgAElEQVR33fz3braptJr7wc7t8s+tekth4QjMLOkZZxHaHARSswT2d67jujsB8surUx+kPm+XZItc5ZD+27ld2p3BWXIAiQ/DEVjRWYDW8N84nOmcNQCB9QPU8yBBnmPL7eD7qXvbTCeHtHaAdrlCDiDxYTgC9v59Pw2uyWPmH850zhqAgN3p8d7uuUkNkbd/O26zDs4cQPuRD50vQPy1ScKkQgnY87Q2G+7YsmwFQlI7BM5zruuxdc//fdteyvztsWUuFw7/dG6XtmsoqVACP3QWn+1ZT2qHwCec6zrlDgfb4w1Wctkj4BLndnlSO+GHUiISsF34PIOb7UJIaoeAPevzrGvKhn+dGjimnWbTeCnfcW6X1zbuIQWEJDCdpMedxbd7SDL5GnWHc33X2QGQV9kDCtNyDsn7zty/JE2fA0h8GIzAqwJ0Bu8YzGSOrkjg+wHqnI677I67zvpfumJ7iHD6OwO0ycUjgMCGdgkgvHZ5RyhtywDB5mlJF/MvKQa2d/wtAbQzdvDwvgiNqqINXIhVBMjpwxHwvvVkjx/sMQSpPQIvl/S8cyC38s0OUnoEVpbkPXG4exCwV3oIp7HYYqD3K7o8ip2mWvL/gskn+dfxeB5e5zwAsABudyJI6RLYQpLdyenujD0+H5cuwqksZzL2VDj4TxsEeP2kDcrxyjg0QOC2uQiktAnsGEBHl6WN8EXrve+q8Dr2i1VRzgcWoCinrrs9jTD34y4e/3RXSZKf7db1lc6DgFw2s2FBtiSbQLpGswRlunVX1fLZJT3pHLjtdjFrkFetSf/zt3LWUS6vArIku7+Wi7KATSiKqu5pnLVZ3R7PbLvLZOLRNNWS3Bf2Gl53nbb9+YHkiI1vMJuyjc+FbxsiwDaUDYFNJNvPOQdu6yjOTYQVZvYmYHeT2u70u8t7ordpSf3CtuxJVVf6xh7s3HBzeXaXqhKmONe/BXF79WmmVAFi938ILOGso6cyqoe/OLP8WkYscWUSAnb11T2SbvvzWZPYx8/NErClP+931oBpbr1m3ST3hgls4Kyhuxv2r83sz3ZmeU6bzlKWL4G/Oovtq77uU7qk05w1YAOA/aiJpAl8xVlD1ydNb2rj7Qq87Qux7vLsDgSpAAKzSnrWWWwfLYBzdBc/5qwBCz6XR4eEfRMSsPfwuzuRtj/bZNZc0rbOLK1PsL6BlDmB1zkLzYLEWpkzTsG9VwfQwTOSXpYCLGychsAcAVYDtLtYuaQ3BGiPK+UCEz96E/hgAKHN29s8fmmRgPfEIxsMbtKivxRVHwHbybPtK/6x5e1TnzvuOdlAeKx/bf/f1iMgZU7AGk3bwuou757M+abk3rectWC6+GZKwLD1RQIHBtDOe160Jo8P/3Bm+sU8MOLFRAROcRZZTs/tJuKcwm+2nWr34Mzj859SAIWN0xC4IoB2XjmNVWl/8UtnpienjQ/r+yHwO2eR2VUnKQYBu+1oz+E9Ov7uMm0+AikdAnMGeP5vr7Hmlr7t3BZtV0JSxgTs/e9/OYvs4xnzTdE1m4nf3Rl7fN4uRXAF2xxhQ6nzM+Rvy2N7tL/RMq1vsD6ClCmB1zgLzIT29kzZpuqWvYs/GgC8/v4oVXiF2n1QAM3smSF774WVrP1zNy5DYY269K4ADTe353ajbFP9u24ATdjtXK480lGQ9zbA1lGtkQ6uvi1dPEBbtLs7pEwJ7OEsMFv/3fYRJ8UhMKOkR5x1YQF91ThIsGQCAnMFeP7/qCTTbW7JYqPFSK87cVbuJ3ODij8vETjaWVy/eckUPgUiYOuAewYdKzvHW7qBqrg2U94dQCs57yR5jTPf79amFDIKR+BXzuL6QTgiGGQEbGKm9wDgYqoiCQLea9abTj+dBKnhjDzJuS1eMpzZnJUCgfucxfU/KUAq0MblnXVhQd32dp+tQPapuXx1AK3Ydta5pi848703V7Cl+zW/s7AsyG9aeiUE9v/2APp4W2A+mCbZ83/vdSMeljRDxpXx/gDt0PoKUmYE1gkgrNdmxjQnd44LoA+2iY6tqA0DaCT3fetXCMB47dgyxLphCHhv/2pXDrMMYzjntELgwwECDyuRtVLVQxdycACNfGpo69M4ceYAd1lYmCsNrQxk5aHOjffmgazl4LYJLCDpOWeNPC9pobYdp7y+CdhbPN6TRVfr29p0D7T9MTw5H5IuOizvReA8Z1H9tJdhfB+GgPc+ERb0PhSGBoZ0E5hH0rPOMST35/+jvM9y5pzza5ajjIv7e4uzqGz7UFJsAhFe8fpebETFWrexc/ywwaF1jCUk76WW/1YC5JJ8nDXA6H2bkoAn6qvt0+B569HKvi1Rdrmb7f0I0bRRyip1H3Fuh/YokFdyM2rRKzsLyhrvmhnxzNUVGyj+O4BWlskVcMJ+XRtAF6UsF71WANavS1irmD6GgD1X9b6ys73nSfEJ2Ip83lrZJT6moiyM8Pz/oczf/+8WlMVK7zb4X90G8TltAvs6C+qutPEVZb2tye8dfH5SFPH4zr4ngCZKm0R8tzPzfeLLEgv7JWD7rXsG9Z/3ayjHuROw26yeWrGybXfCmdxJYMAogcMCaOITo8YU8vcXzsxPKYRzEW5e5yymbxRBOQ8nbUvSfzrrxQYBb8gDZxZe2AJN3oPCVbIg2b8T33Rm/vv+TeXIyASmDzCxa9fIgLBtGgI2+vcO+AdMYxVfeBCYN8ACUQ9IsjhWUtrNuQ3a5lw577lQjJaWcBaSdSRs8pKW3LYNoBl7HbC0oB9RJZsE0MKZEcE0bFOEV3Jf07CPZN8CgQgbeCzWgp8UUR+BVwYI+jZw3KA+l8hpSAKHB9DC7kPanvJprwjA/d0pA8T2FwjY5hmet3MflWTPlUlpEbC9Gzx1Y2Xbc0juAvjqxurAWwclvpNuMdMmw3qy38NXepReB4FjnEV0dR1OkEfrBI501s1o4Nuhdc8pcJTAfAGe/99f8CDQe/Olo0eFwN90CVzqHMi/ny66oi2P8O63DQJsMtKUomvCz/n3OccOq/8z/Nx3L/lEZ/6/dieAAZUJ2Ah69GrK4+/nKntABh4E5pb0tLN2RvV6u6SlPCAUXuZJAerfZsOXmj7vzN/6DlLCBBZ0FpAFcLuKIKVJwK4ARjth77+2NsHqaWJM0mobcD0VoP5XSpJePUZvGoD/AvW4Qi4eBNYLIKDlPBynzFoI7B1AP90DD3scYFdFrBJYS/X2zGR2SVcFqPv7Cp9AvHyAOli3p0r4ITyB7Z0FZLeQCdbhZdLTQJt93d0BR/l8oyTbMnWWnpbzw7AEFpd0WZB6//GwTmRynsVO78dwH8uEZZFueK/hfVOR1PNy+m9BOoPxBh/3SvqBJFu4yLZQfbUkW7mOf4MxWETSmzvcjpD0WKD6ZgVRyft13EPzCmdlefMz58Zc4gpeuSnMAsB4nS/fwaVpDayQW2Mawh/bGbNpzhPlf/4QNnNKEAJ/dxYP67kHEUIFM17vrKGJghO/+XYOTfK3SZ8sICYd6Nz+bqkQOzjVkYBN5HnOWTxbO/pP0fURuNZZR012NOQdcxBxan3yTTqnbZzbnvUh1peQEiMQYV/3NRJjhrnjE/CeTEonHbOTbrJeuHh4oS1GuANX2lbM40fBxL79sPPI0YKDLSZDSp/AnJIeDqCnJjsc8o4zyHhWkq1hQnohhj7v3PY+REWkR+BLzqK5Mz1kWDwBgf2c9UQHHaeDbrou7DVE0ksE7nJue/u+ZAqfUiFwmrNoLk4FFHb2RWAeSQ86a6rpjof8Ywwy2ABq6ib5v87tjvkYU9dHEv+73lk0RyVBCSMHIRBtZUA67Bgddp318DiPDqdpkt9wjuXXTWMRX4QmMMPILmp1NsxB89olNCGMG4bAXJLs0c6gWuB4mPWrgeOGEWbm59iCSP3ya+I4W4Lb+hRSIgRsI48mhDBInm9JhBVmDkbgAwG0NYgOOdY/FvRbB/bK2YqDybGIo98aoM0tWQTpTJzcKIBgFs2EJW5MS+CcAPrqt1PhuHQGAD+aVmp8I2mxAO1tQ2oiHQKfcRbMI6zilY5YhrDU1ty3OqZzhUFdGrBX/7j6790YvV/D/XRv0/glGoFjnYPzldGAYE/tBDZz1lhdHQ/5xBjEfKt2heaVoff2zN/LC2fe3nhv53lC3njxboTAMQwCuAtSgwYekLQArWpCAt+vgXOVwe6lE1rHj6EI3O8sls+GooExTRGwNcJ/56y1KkGNc2Nc/X+kKYFmlO/nnNuZDdJICRBY2FkoFlTfmwAnTKyHgE32vC2A5ujMY3Tmg9bDj+uRYfa5bBKgjS2UPeUMHFw/gFCWzYAjLvRPwPZtfyiA7gbtfDjed9Bwh6T5+pdZ0UcuF6B9rVd0DSTi/I7OQnla0kyJsMLM+gjYug//ctYeHbpvhz4If9MKu4X23/4spj7l3L5Yorn/+nI78uvOIvmDm+cU7E1gXUmPOutvkE6IY30GDLa7HTvMDd5a/+jctg4f3GTOaJvABc4iOaNthykvFIF1WCOANwMmiUF7hFJsOsacOQnXpge0P0sHVbmWek/I2r9c9Hg+QmAlSX93DlZNB0PyH+7uwf/QSoYm8BXnNnXr0JZzYisE7LUsW0/bMzht2YqnFBKdgM0YtneHPbVI2XH4221/VpOr1mq3cm5PVodzVHOBs5sksJqzQCzgTmnSQfJOisAskr4pyQIHnXG5DGw3OZ75V2+6NmnSux2tWt0NcmiKwBbOArFAP3dTzpFvsgRsI5F/OGvTO3CWWv49kt6QrHJjGW7bcXsPpjePhQRrugl82TnI3t5tDJ8h0EXAHgmc6qzPUjthL7/PlcTiMV2NoIaPtnaCV31aufvV4ANZNETgdGdxXNSQX2SbDwFbL+BGZ516BtASyrZXQXdhR9BGGu3Fzm3ntEa8ItNaCHgH1iNq8YJMcidgi5rsKsn7aqaEzrhNH+329A8l2fLQpGYIHOk8ALihGbfItSqBGSQ96SyOnao6wflFEbBJgrZyJa8M+t7WrWOQYHf/1i5KvT7O7uwc4201whl9XKfUiQgs7SwMCyJvnshAfoNADwIWUGyzk3MkPRtAx3V0iCXk8YyknzLJr4eqm/naHqF5a2upZlwj1yoE3hNAGC+v4gDnQkDSYpL2GllDgMGAf7Afr7P5S2eg9oWRukK07RJYJECc37hdlymtHwJ7OgvDdoMjQaBOAgtI2lrScSMTB70XuRqvMyzhu8ck/UKSxZjl66xg8hqKgPfOm58ZympOapSABUnPYHRFo96ROQReWGPCHjNtL+lASadIukzS9ZL+JuleSQ/ybygGtszrTSM8bSKfLTu7rSRb1tnmF5HiELjSOdYfGwcFlowSsA7YcwBgAxASBCAAAQg0S+B451h/ebPukfswBOzKx3MAYLcHSRCAAAQg0CwBmyPjGet53Nts/Q6cu02+8xSElW2TEEkQgAAEINAsgfcGiPcLN+siuQ9CwJ6Leg8A7DVEEgQgAAEINEtgmQDx/k3NukjugxCwBXg8BwAsDjFIbXEsBCAAgeEJ2LoZ3ou+2QJepCAEbAlezwGALUFMggAEIACBdgj8wTnmf70dNymlHwK2DKfnAMA2ISJBAAIQgEA7BH7sHPMvbMdNSumHgG3D6zkAsG2ISRCAAAQg0A6B/Z1j/m3tuEkpkxGYQ5LtwuU5ANhiMiP5HQIQgAAEaiOwpXPMtz5nztq8IaOhCazuLAQbeKw2tPWcCAEIQAACgxIg7g9KLNPjGQlmWrG49SIBu9LYUNIBnaVpz5D0a0nXjCxbe3bnSuQQSZtJmv/FM/gwEYF5Jb1P0tdGdvOz5ZSN56WSfiLpoJF1PeaeKBN+cyXAnV9X/HEK51lQnLrAknoJrCLpREn/6vMu19Odu1E2IHhrvWZkk9vakmzyWL+vkD3R2fznVElrZUMgL0eY+5VXfQ7ljfds0AuGspqTINCbgG15ahv9VJnb8n+SXtu7iKJ+WULS+X0OonrNJTpL0quLohbfWZuJ36u+2viet78CaIT3QQNUAibURsCuNu+pKbDZFexWtVmWZkbvkFTX9rGPdh4VbJQmhiytZv2XLKu1f6dYEap/VhwZn4C9TWKddp1XL3YXwR6TTRff/dot/ISkZ2vmafntXrulZDgMAVaAHYZaRuewJnRGlVm4K+9soLPqHkjsXRjfj9Tc8XeztM87FMYzorvsAROxVlq0iV2hWoRNUY0RWE7Sww13WHYn4IONeRAr4zcOMNFvbMfe7/9twiUbwvjWO7vA+vJ3L519od2rAAMqEphF0s0Nd/6jndpjkharaG/0019W4xyKUW69/v5D0lzRgWRu34MttZ1eGtgzc76h3TveufIvD00H41Ig8NmWNXxMClAq2Nj2xLD9KtjKqdUJXNFy+xk7EDiuugvkMCyBK50r/9hhDec8CEiyxUzua1nDNokt19cD7ZZw3ZMoxwb8sf9/XJK9tknyIWAd8Ng6afP/NgAhORGo6/WeYQXzGSe/KTYPAh91Cl7fyQPfNF583onnPtNYwhdtEbBb8MPG7zrOsz6I5EDARt11VGCVPDZ28Jsi8yHgtZCJPTe1V2hzS9c7xQSbw0HyIfAepzrv7jfszhOpZQJvCVDxS7XsM8XlQ2DmAZb47Q42dX1+fT4o/+PJQhVXTqzKdfHMeKbiztIB+gF7HZHUMoGdnSv+qUyvolquxmKLW9lZv7aISk7J1lGo2olXOX+TnGAm5MsMLbzyOZkucmtLSVT/kc4N/oYkKGFkVAKbOuv3sKhghrRrF2eezAcasuJqOO1G57q3N09ILRO42LnST2vZX4rLi8B/O+vXXqHNKX3Bmadt1UzyIWCb8kx2ld7k7xf5uF12qXc4Vzrv/5atv6reb++s35OqOhDsfJuJ32SQnyzvg4PxKMmcLzvXvW1LTGqRgK2+VWWr1Mkacz+/b96ivxSVHwHTTz86a+qYb2WG9FPOPEvbayGSfGwTrabaST/5Wl80dyQguduyhnOFmyhWzR0y/jVKYB1nDdsy2jmlzZx5bp0TzMR8Wc257q0/mJIYs6TNtT3O+xmZNXWMjfhsFTcSBIYlMK+k5xx1nNu+9ss7srQ4s/qwQuC8ygRmd25LVv9bVvaCDPom8BXnxn5r35ZyIAR6E/idk45tOWDbNCenNF2LmwCNvbCw1eDsdTSSH4HbnNrSqBb293O9vJLPdK7sn5WHHI8bIPBFJx3nOmv52048v9+ANshyMAIXONX96ADgjMHM5egqBP7oXNmHVzGecyEwQuBVkp5x0PKHM60Buw0/GpDb/PumTHmm5NbXnep+VGd/SAlWyrbOJMlW4RsF7/F3h5QBYnsoAie0rOU/Z367uu0rwctCqalcY3ZsuR2N7XeelmR9E6lhAss5V7RV/HoN+0j25RCwTa0eblHTuW9gtYIkC8ZjA3QT/7dJnGuVI9XQnq7fUp1PpKNlQxPKxDhbc3uiSmjjN9t4hASBugjYDOI2dGt7p5eQbFneNnjaZGRSDAILt1TnE+nqvTFQ5G3F55wr+oG88eKdE4GDGtb15ZJmcfLNo9hjGuZ5fuaPUjzqrGqZ9zdc5xN1/vbbZ6s6wPmTE7AZt5NVRJO/Xzq5iRwBgYEJTC/JludtQrs2QcmukEpKNthpaj7AFZJsNVJSLAI2H6OJ9tNvnjafh9QwgaucK/l7DftH9uUSsHfZbYW+OhcIsldWc3vnv1+F2Lv5dd9ZOUXSbP0awHGtEjjWuW+4slVvCy2szQlT4438Pl0od9xuj8CGkm6pGMye7JxvG+TYnYXSk82xuLsiz8ck7VY6yOD+tzX3Y7x+wb57RJIN4kkNEVi0YiPuVXGDfJ/bEqoNVRXZViQws6TdJd07oOZtBrw9JluqYvm5nW5Ld9uWwRakB2nvT0j6pqTFcgOSoT8Wmwep2yaOtT6K1BAB7w1UTDBLNuQb2UJgPAL2LPt9kmwG/196PB6wQcLZknaRxBsq41F86TsbCNhOjDbfwpb0Hm9X0bsk2R7z/13w45OXiKXzyQa9TXTqg+T5xnRwpWep7bg1SGXUfaxdDbDmd3q6ycliGxAsIWnlkcHofDk55+CLbSQzytP+sq2rQyXUVKTFZovRdcf9QfKzrYlJDRGwZ5qDVEbdx17XkF9kCwEIQAAC1Qlc79xH2GMmUkMEjneu3FMb8otsIQABCECgOgGL0XVf+A2SXymLbVWvqSFysFeaBqmMuo/98hA2cwoEIAABCLRDwGJ03XF/kPzOa8fNMku5xrlyty8TO15DAAIQSIKAbdQ2SIdd97G2Tg2pIQJ/d65cez+bBAEIQAACMQnYZld1d+qD5PfXmFjysOpR58pdJQ+MeAEBCEAgSwKrO/cRD2VJNYBTtsLSeO/sDjI6q3psaeupB6h2TIAABCDQNwHbXrtqnK9yvi3jTWqAgK2MVqViqp77DMuqNlCrZAkBCECgPgK2FsCzzn3FjPW5Q06jBOZ0rlRbYIIEAQhAAAKxCdjFWtULvirns1lUA/qwFc+qVErVc59qwCeyhAAEIACBegl43wFgNcl66/M/uS3oPACwUSUJAhCAAARiE6hzO+1hLhxZnrsBfczjPACwUSUJAhCAAARiExim067zHNtwilQzAe9JgPYGAgkCEIAABOISsLfF6uzMh8mLDeMa0of3s515G/KLbCEAAQhAoDqBBZwHAE9Xd4EcehF43LlybQtWEgQgAAEIxCSwqnMfYYvVkRoicLtz5W7UkF9kCwEIQAAC1Qm817mPsOXqSQ0R8N4MaKeG/CJbCEAAAhCoTmBX5wHAldVdIIdeBM53rtwDehnG9xCAAAQg4E7gq859xNnuBDI24ATnyj0rY7a4BgEIQCB1Auc59xHHpA4wsv37O1fuvZLsNRMSBCAAAQjEImCx+X7nPmLfWEjysuYjzpVr74QunRdSvIEABCCQBYHlAvQPW2ZBMqgT6wSo4G2CssEsCEAAAiUT+GiA/mGtkiugad9fHqCCv9O0k+QPAQhAAAIDEzg6QP9gCxGRGiTwkHMl23uezANosILJGgIQgMCABCwm3+rcN9j8A1LDBH7hXMk2D2DNhn0kewhAAAIQ6J/AGwP0Cxf1by5HDkvg4AAVfdiwxnMeBCAAAQjUTuCIAP3CgbV7RYbTENg8QEXfJWn6aSzjCwhAAAIQaJuAxeI7A/QLm7XteInlLROgou0xwLolwsdnCEAAAsEIvClIn7BEMC7ZmmNX4MPs01znOadkSxfHIAABCKRD4PQA/cEd6eBK39KTA1T4s5KWSh8lHkAAAhBIlsCSkiwW13lxN0xeJyZLMEHDPxagwk0k30qQHSZDAAIQyIVAhHf/rS/YNhegKfhho75hRml1n/NvSQunAAwbIQABCGRGwBaGeyJIX8Dz/5bF9ccgFX9Qy35THAQgAAEISF8L0gf8gcpon4C9c1n3Ff0w+T0ladn23adECEAAAsUSsE3ZngzSB9gutaSWCdimC8N02E2cwwpQLVc+xUEAAkUTOD9Q/J9SdE04OW+LP9wdSAQfcOJAsRCAAARKIvDBQHHfXv9jbxgn9R0eTAhzOnGgWAhAAAIlEJgryKp/o3eSbR4CyYnAKoEGACaIk5w4UCwEIACBEggcHyzmr1QC9Mg+/j6YIHgfNLJasA0CEEiVwHbBYv01qYLMye5PBhOFrQ2wck6A8QUCEICAMwGLqRZbR2+9R/i7mzMTipc0r6THgwnjL5LmoXYgAAEIQKAyAXvuf3OwGP8YMb5yvdaWwXeCicNGpxdImrk2D8kIAhCAQHkELIZaLI1wxd9twzfKq4q4HttCPM8HFMlPJM0YFxuWQQACEAhLYAZJpwaM69bXLBeWWqGGXRhQKDZitF2ibM0CEgQgAAEI9EfAYqa9VdV91R3l83n9ucBRbRJYL6hYTLTfZrGINqVAWRCAQMIEbGGd7waO52snzDZr038RWDR2K2u2rOnjHAQgAIFqBGYZuWsa5Wp/rB0s+16tfhs920ZmYyss0v+vYPvgRuufzCEAgXQJLCDpkuAxfN108ZZh+c+DC+gWSSuUURV4CQEIQKAvAitK+nvw2H1xX55wkCuB1SQ9F1xIj0ja3JUShUMAAhCIQWALSRYTI92tHWvLs5Js6XlSAgSODS6mUXGdK2nRBHhiIgQgAIG6CSwk6YxEYvXRdTtPfs0RWDiBEeXoIOBBSVs2h4KcIQABCIQjsJmk+xLp/B/tvJWwSDiCGDQhgb0SEdfoQOAs5gZMWJ/8CAEIpE/AnvWfk1hs/nT62MvzwFbguzYxodnchdMkLVledeExBCCQMYHFR97tt2fpoxc9Kfy13WZnyrhesnZtdUnPJCY4axRPSTqqsxLWUlnXDs5BAAK5E7AYZuvmW0xLocPvttH6jlVzr6Dc/Ts4QeF1i9D2nN6eRYRylyn+QSAbAraBjz3jt9fmIu7R0h1fJ/p8YDY1UrAjtvrejYkPAkyk90o6TNJb2GWwYDXjOgRiErAV/N7a2SL38IQm903U+V8vadaYqLFqUAIrSXoig0HAqGAfH5lIs+vIrlRsNjSoIjgeAhCoQsBiju2IZzHIXme2mDQan1L/+28mZFeRRsxzTaipC7OX/SbY30r6oaTPS9pUkm2OZM+vlujMJ5ifiSwxRYlVEAhIwCa9Wcyw2GExxGKJxRSLLSePxJqcLqjGxtWdAtYJJlUkYDtM/TTjQcBYEfP/fAd81C11iwaa0YAtTETKlMBcmcwHoPE30/jhClc0UK4GburMYZgn074Pt0YILCPpIe4EZPs4hABebgCn7qn7YTVgK7IuTS9ZBoENJKW2IMWwwuY8giIaQANooLcGbAG2Dcvo+vBylMCO3AXgLgAaQANooHgN7D7aKfC3LAL70/iLb/xcGfW+MoINbHLXwJfK6vLwtpuAvRnwPQYBDALQABpAA8VpgC1+u3vDQj/bpkG2AU/uI138o47RAB9wHikAAASiSURBVBpAAy9o4BRJMxTa5+H2GAImhB8wCGAQhAbQABrIXgOnSrILPxIEXiTAIICrI66O0AAayFsDdP4vdnl8GEvABgHHcQWQ/RUAQT7vIE/9Ur/jacDme3Hbf2yvx/+nIbAXgwAGAWgADaCBbDRwkCSb9E2CQF8EPirpGQJANgFgvCsCvuNKEQ3krQFb8M3WfCFBYGAC72LZYAYADALRABpIUgO2vO87Bo76nACBLgJLdbbCvJ4AkGQA4Oou76s76pf67aUB29hnua44zkcIDE1gTkmnMwhgEIAG0AAaCK8Bm+k/x9DRnhMh0IPA1pIeJwCEDwC9rgr4nitGNJCvBv7deWTLuv49Oi++roeA3Va6lkEAgwA0gAbQQBgN2GPaleoJ8eQCgYkJzCLpAElPEwDCBACu7PK9sqNuqdteGrAY/OVOPJ554pDNrxCon4CNOK9gEMAgAA2gATTQugbsTuxq9Yd1coRA/wRsZSl77vQwAaD1ANDrqoDvuWJEA/lq4CFJu0mavv8wzZEQaJbAfJKOYPEgBgEMBNEAGmhEA7Yw23clLdRsKCd3CAxP4LWSziUANBIAuKrL96qOuqVuJ9LAOZKWHz4scyYE2iWwiqTTJD3PYIDBABpAA2hgKA1cLGnNdkM3pUGgPgJTJJ0p6TkCwFABYKKrAn7jqhEN5KcBW7/fYubq9YVhcoKAL4FFO8XvK+l+BgIMBNAAGkAD02jAJlLbPKrX+IZqSodAcwRsicrtJP2KxwPTBACu5vK7mqNOqdOJNGCPSC+RtK2k2ZsLu+QMgXgEluhcBewj6U9cDTAYQANooCAN3Ny5APoiV/vxOiUs8iFggwFbT8AmvdjrLhONmvkNPmgADaSkAZsDdU0ntNpjUJ7t+/QxlJoIgQUlfUDSUZJu4FEBgyEGhGggMQ3YrX2LXUd2/r5f0gKJxF7MhEA4AtZ43iHps513YW2ryz9LspmyKV0BYCv1hQby1IDFInuM+SNJe0naoHPxMn+4KIpBEMiIgG1+saykd48si3mIpBNGFiG6UtJfJd0j6UFJjzJYYLCEBtDAABqwmGGxw2KIxRKLKbbAmcWYgztvM+0q6V2SlmEjnox6FVyBAAQgAAEIQAACEIAABCAAAQhAAAIQgAAEIAABCEAAAhCAAAQgAAEIQAACEIAABCAAAQhAAAIQgAAEIAABCEAAAhCAAAQgAAEIQAACEIAABCAAAQhAAAIQgAAEIAABCEAAAhCAAAQgAAEIQAACEIAABCAAAQhAAAIQgAAEIAABCEAAAhCAAAQgAAEIQAACEIAABCAAAQhAAAIQgAAEIAABCEAAAhCAAAQgAAEIQAACEIAABCAAAQhAAAIQgAAEIAABCEAAAhCAAAQgAAEIQAACEIAABCAAAQhAAAIQgAAEIAABCEAAAhCAAAQgAAEIQAACEIAABCAAAQhAAAIQgAAEIAABCEAAAhCAAAQgAAEIQAACEIAABCAAAQhAAAIQgAAEIAABCEAAAhCAAAQgAAEIQAACEIAABCAAAQhAAAIQgAAEIAABCEAAAhCAAAQgAAEIQAACEIAABCAAAQiMQ+D/A8+9he7YJblwAAAAAElFTkSuQmCC;" vertex="1" parent="1">
          <mxGeometry x="561" y="64" width="30" height="30" as="geometry" />
        </mxCell>
        <mxCell id="iHRBWM1eIZJ4OxDIeNG5-5" value="" style="shape=image;verticalLabelPosition=bottom;labelBackgroundColor=default;verticalAlign=top;aspect=fixed;imageAspect=0;image=data:image/png,iVBORw0KGgoAAAANSUhEUgAAAgAAAAIACAYAAAD0eNT6AAAAAXNSR0IArs4c6QAAIABJREFUeAHt3Qe4bWdd5/FfEtJ1KAkhhhaagbSRJiABERABxUdAsAbEQay0IGQAZyagYAaSUMaZEWcsRAUGlFEjzUSwpAEzIIEgNUKikp6QAqnXOa+zbzj3cu45Z5+zz95rvf/Pep48OfeUvdf7fb/vv6y9SmJDAIExE7hLkocleVqSn03yyiSnJHlrkj9Pcm6SzyT5YpILklw5+e+6JP8y+a99vf377Xfa77a/aX/bXqO9VnvN9trtPdp7tfc8aMzg7DsCCCCAAAJDJ3BwkickeUmS35gk5fOTXL8siW9P5vP+f9uHT0326b8kOS7J9yZp+2xDAAEEEEAAgXUQ2D3JUUl+KsnJSU5PcukAkvxGi4pLJmNoY2ljamNrY7QhgAACCCBQmsD+SY5JcnyS05JcMeJkv94i4dokZyY5MclTkty+tAEGjwACCCBQgsDtkjwqyWuTfGTpM/WbCyT8tQqDxuDDSV4zKYYaIxsCCCCAAAKjJ9BOlHtGklMnJ9qtlRCr/7ydkNiOhjwvyd1GP/sGgAACCCBQisA9JifstS5/my7/tqsNpi1uGrt2dKCdWHj3UgYZLAIIIIDAaAjcNckLJ59vS/rfuMRw2qS/2u+3Kx/a+RKHjMYKO4oAAggg0CWBfZL8RJIPJblVp7/hTn+1pL/Szxrrv0zy40snE7Y5sCGAAAIIIDAXAodNzmK/TNKfW9JfqRBo37sqyVuS/Nu5zLw3QQABBBAoR2CvpTvpPWvpJjdnSfoLT/q7Kgba5YXHLl1l0ebKhgACCCCAwKYI/JvJZ/sXSfyDTfw7FwQXL834CUnutKmZ98cIIIAAAiUJ3GtymP9qiX80iX/nQqDddKh9PPDtJQ02aAQQQACBqQgcnuQdSW6R+Eeb+HcuBNpcvm1pXu8/lQl+GQEEEECgBIFDJ92ixL81l/DtnJQX8e929cA7HREosZ4NEgEEEFiTQLtpTztM7La8/Sb+nYuNNtftzoz3WdMOv4AAAggg0B2BdoLYm5Pc6FB/N4f6d070a/27zf2bnCzY3do2IAQQQGBFAu1hM+0+82N+zO5aic3PpzuaceXkSg8PIlpxyfgmAgggMH4Cj0tyno6/bMe/VmH0maWnND55/JobAQIIIIDAdgLtkr72hLm1EoCfY9Qc+JMk99wuj/8jgAACCIyPwO6Tw/3tenDJHYNpHLh+8uChPcanvT1GAAEEahM4Ksm5Er/CZ5MOfCzJg2ovJaNHAAEExkFgz0nn5ux+Hf80Hf9qv3vT5K6Qe49jCdhLBBBAoB6B9kS4T22y41stEfhZ7aLik0mOrresjBgBBBAYLoHdJpdx3SD5O+S/xQ40x45P0s4vsSGAAAIILJDAXZK8Z4uDvs6/due/0vyfnuSQBXrvrRFAAIHSBH4oyWWSv65/QQ60m0k9pfQKNHgEEEBgzgTapVknJtm2oMC/UkfoezWPEjQH2+2E3UVwzkHA2yGAQD0CByZph18lXAyG5MBfJWkfR9kQQAABBLaAQLse+x8kf8XPQB24KMnDtsB7L4kAAgiUJvDcJM7y1/UPqetfaV++nuSnS69Ug0cAAQRmRKBd4nfCQDu+lRKA7ylSmgPtvACXCs4oCHgZBBCoR2CfJO+Q/B3yH6kD706yX71la8QIIIDA5ggckOTMkQZ+RwEcBdjuQHsexUGbWwr+GgEEEKhD4L5JPif56/w7ceCCpSNZ96+zfI0UAQQQ2BiBhya5opPAv70L9H9HBC5P8pCNLQl/hQACCPRP4JgkX5X8df6dOnBtksf2v4yNEAEEEJiOwGOStACpW8agZweuT/KE6ZaG30YAAQT6JfD9S09Ya9dP9xz4jc38bnfgxiRP63c5GxkCCCCwPgLPTHKT5K/4KeZAc/4Z61sifgsBBBDoj8APSv4Sf7HEv/0oQPt/KwLaGrAhgAACpQg83mF/yb9w8t9eCLSPA55UauUbLAIIlCbwXU74k/wl/9scaCcGPrp0RDB4BBAoQeCBSa4S/G8L/ts7Qf+vfZJgu/y13QPDhgACCHRJoN0NzU1+aic6hc6u57/dLOiwLle+QSGAQGkCByb5vM5f58+BVR1otw327IDSodLgEeiLwL5LNz85W+BfNfDrjHfdGVdj8xFPEewrABoNAlUJtGei/7HkL/lzYCoH3pWkrR0bAgggMFoCpwj8UwX+at2u8e76yMfrRrvq7TgCCJQn8FzJX/LnwKYceE75KAIAAgiMjsB3JrlB8N9U8Ncd77o7rsKmPSPD5YGjC392GIG6BA5I8g+Sv+TPgZk48OUkd64bTowcAQTGQmCPJB8Q+GcS+Kt0uca59pGOM5K0tWVDAAEEBkvg9ZK/5M+BLXHgtYNd9XYMAQTKE/ihJNsE/y0J/rrktbvk3hm1tfX95aMMAAggMDgChyS5TPKX/DmwpQ5cmuTgwa1+O4QAAmUJ7JbkvQL/lgb+3rtb41v/EY73J2lrzoYAAggsnMBLJH/JnwNzdeAFC1/1dgABBMoTODJJu1ZZB4cBB+bnQLvHxtHlow8ACCCwMAJ7J/mU5K/44cBCHDgvSVuDNgQQQGDuBH5N4F9I4Ndpz6/THjrrE+a+6r0hAgiUJ3BUkpsUAAoADizUgRuTHFE+GgGAAAJzI9AeU3q2wL/QwD/0ztT+ze8oxbnuEji32OeNEChP4DjJX/LnwKAceH75qAQAAghsOYF7JrlW8B9U8Ndtz6/bHirr65Lca8tXvzdAAIHSBE6T/CV/DgzSgXeXjkwGjwACW0rgcQL/IAP/ULtS+zX/IxNP2NII4MURQKAkgdsl+aQCQAHAgUE7cH6StlZtCCCAwMwItFuP6ugw4MDwHfi5ma16L4QAAuUJ3DHJ5QoABRAHRuHAFUkOKB+1AEAAgZkQeLPAP4rArzsffnc+rzk6ZSYr34sggEBpAu2yv3a3sXkFLu+DNQc270Bbs4eWjlwGjwACmybw25K/4ocDo3TgNze9+r0AAgiUJXDfJDcL/qMM/rrozXfRY2fYntVx77LRy8ARQGBTBP5A8pf8OTBqB353UxHAHyOAQEkChye5RfAfdfAfewdr/zd/FKOt4fuXjGAGjQACGybwDslf8udAFw60I3k2BBBAYF0E2kNFdP+b7750sBgOwYG2lp0LsK7Q55cQQMB1/xLXEBKXfZidh+4LIK4jgMCaBNpd/zzud3aBVxLDcggOXJPkDmuufr+AAAKlCbzC575dfO47hKRjH4ZV/BxfOrIZPAIIrEpgryT/rABQAHCgSwf+KUlb4zYEEEDgmwg8S+DvMvDrxIfViS9yPo79plXvGwgggECSsxQACgAOdO3A34p0CCCAwM4EHiDwdx34F9l1eu9hHYFoN/myIYAAArcReKMCQAHAgRIOnHzbqvcFAgiUJ7B3kssE/xLBXzc+rG58EfNxeZK25m0IIIBAfkLyl/w5UMqBHxH3EEAAgUbgQ4J/qeC/iK7Tew7ryMMZQh8CCCDwbUluVQAoADhQyoG25g8R/hBAoDaBFwn8pQK/TnxYnfgi5+P5tUOf0SOAwDkKAAUAB0o64J4A4j8ChQncPck2wb9k8F9k5+m9h3EUoq39exSOf4aOQGkCL5X8JX8OlHbgxaUjoMEjUJjARwT/0sFfJz6MTnyR83Bu4fhn6AiUJdDO/nf4XwJYZPLx3ov3r8WAFgtsCCBQiMBP6/51/xzgQJJnF4p7hooAAkneJfgL/hzgQJK3i4gIIFCHwO2SXCX4C/4c4ECSK5PsUSf8GSkCtQk8SuAX+DnAgWUOPKJ2SDR6BOoQeO2yhe9ErMWfiGUOzMGiHXhVnfBnpAjUJvBRBYDujwMcWOZAuyOoDQEEOiewf5Kbly38RXce3l/3y4HFO3BTkv06j32Gh0B5Ao+V/HV+HODACg58d/noCAACnRP4DyssfB3Y4jswc2AOFu3AKzqPfYaHQHkC71cA6P44wIEVHHhP+egIAAIdE9g9ydUrLPxFdx7eX/fLgcU70O4N0mKEDQEEOiRwlOSv8+MAB1Zx4MgO454hIYBAkuessvB1YIvvwMyBOVi0A54LIFUg0CmBUxQAuj8OcGAVB07qNPYZFgLlCZyxysJfdOfh/XW/HFi8Ax8oHyUBQKBTApcoAHR/HODAKg58pdPYZ1gIlCZwyCqLXue1+M7LHJiDoThwUOlIafAIdEjgiQoAnR8HOLAOBx7XYfwzJARKEzhuHQt/KB2I/dANc2BxDrywdKQ0eAQ6JPAbCgDdHwc4sA4H3thh/DMkBEoTaLf51FVhwAEOrOXAn5aOlAaPQIcEzlcAKIA4wIF1OPCJDuOfISFQmsB161j4a3UGfq575ED/DlxTOlIaPAKdEbiL5K/z4wAHpnDggM5ioOEgUJbAw6ZY+Dq8/js8c2yO13LgIWWjpYEj0BmBpysAdH8c4MAUDjy1sxhoOAiUJfBzUyz8tToDP9c9cqB/B36mbLQ0cAQ6I/ArCgDdHwc4MIUDL+8sBhoOAmUJvGGKha+767+7M8fmeC0HPBa4bLow8N4InKoA0P1xgANTOPC7vQVB40GgKoH3TrHw1+oM/Fz3yIH+HTitarA0bgR6I/BhBYDujwMcmMKBs3sLgsaDQFUCn55i4evu+u/uzLE5XsuBT1UNlsaNQG8EvqgA0P1xgANTOPC53oKg8SBQlcBFUyz8tToDP9c9cqB/B75cNVgaNwK9EbhEAaD74wAHpnDg4t6CoPEgUJXA1VMsfN1d/92dOTbHazlwZdVgadwI9EbgawoA3R8HODCFA9f3FgSNB4GqBG6ZYuGv1Rn4ue6RA/070GKGDQEEOiCgAOg/YEvK5niWDigAOgj8hoBAI+AjAMlhlsnBa/Xvk48A5A4EOiHgJMD+A7akbI5n6YCTADsJ/oaBgMsAJYdZJgev1b9PLgOUNxDohIAbAfUfsCVlczxLB9wIqJPgbxgIuBWw5DDL5OC1+vfJrYDlDQQ6IeBhQP0HbEnZHM/SAQ8D6iT4GwYC57oPgJvAcIADUzhwlrCJAAJ9EHjPFAt/ll2E19KVcmCcDvxZH6HPKBBA4K0KAN0fBzgwhQO/I2wigEAfBE6eYuHr2MbZsZk38zZLB17XR+gzCgQQeIUCQPfHAQ5M4cDxwiYCCPRB4GenWPiz7CK8lq6UA+N04Ll9hD6jQACBpysAdH8c4MAUDjxV2EQAgT4IPGyKha9jG2fHZt7M2ywdeEgfoc8oEEDgIAWA7o8DHJjCgQOETQQQ6IfAdVMs/ll2El5LZ8qBcTlwTT9hz0gQQKAROF8BoAPkAAfW4cAnhEwEEOiLwJ+vY+Hr1MbVqZkv87UVDvxJX6HPaBBA4DcUALo/DnBgHQ68QbhEAIG+CBy3joW/Fd2E19SlcmBcDrygr9BnNAgg8AQFgO6PAxxYhwPfI1wigEBfBA5ex8LXqY2rUzNf5msrHLhzX6HPaBBAoBG4RBGgA+QAB1Zx4J+ESgQQ6JPA6ass/K3oJLymDpUD43Lg/X2GPqNCAAGPBR5XMJY8zde8HfAYYHkCgU4J/JQjAA7/coADqzhwbKexz7AQKE/gqFUW/rw7De+nu+XA8Bw4snyUBACBTgnsnuRKRYAOkAMcWMGBFhtajLAhgECnBN63wsLXiQ2vEzMn5mTeDrTbhdsQQKBjAr+iAND9cYADKzjw8o7jnqEhgECSdpeveXcW3g9zDgzfgUeJkAgg0DeB/ZLcpAhQBHGAA8scuDFJiw02BBDonMBHli18ndnwOzNzZI622oGzO495hocAAhMCr1EA6P44wIFlDpwgOiKAQA0Cxyxb+FvdWXh93SsHhu/Aw2uEPqNEAIE9klyhCNABcoADk1jQYoINAQSKEHin4C/4c4ADSd5WJOYZJgIITAg8R/AX/DnAgSTPEhURQKAWgYOTbJMAJAAOlHagxYBvqxX6jBYBBBqBDwv+pYO/k/OGf3LeVs/ROUIhAgjUJPASBYACgAOlHXhhzdBn1AggcHcfA5QO/lvdXXr9YR9huDXJXYVBBBCoS+AsHaAigAMlHfjrumHPyBFAoBF4geBfMvjrzofdnc9jfn5RCEQAgdoE2tUAtygCFAEcKOVAO/x/SO3QZ/QIINAI/KXgXyr4z6O79B7DPsJwutCHAAIINAI/rgBQAHCglAPPFPoQQACBRmDvJJdJAKUSgA592B36Vs7P5ZM1L/ohgAAC/0rgDQoABQAHSjhwkpiHAAIILCdwf/cEKBH8t7Kz9NrjOKpw+PKF72sEEECgEXBPgHEEcInWPG3Ugb8V6hBAAIGVCBzrELCjABzo2oGfXGnh+x4CCCCwZ5KLJICuE8BGO0d/N/6jDv+YZC9hDgEEENgVgX+vAFAAcKBLB166q0Xv+wgggEAjcIck10oAXSYAXfz4u/iNzuE1k7UtyiGAAAKrEnijAkABwIGuHHDp36ohzw8RQGA7gUOT3CwBdJUANto5+rvxHzW4Kck9ti9u/0cAAQTWIvB2BYACgANdOPD7ay12P0cAAQSWE/h2RwG6CP46+PF38JuZw/akz8OWL2xfI4AAAushcKoOUBHAgVE78NvrWeh+BwEEENiZwH2StM8PN9OB+Fv8OLAYB9ravffOi9q/EUAAgfUS+J8KAAUQB0bpwH9f7yL3ewgggMBKBNrZwzdIAKNMADrvxXTeQ+D+9SR3X2lB+x4CCCAwDYE3KQAUABwYlQMnT7PA/S4CCCCwKwJ3THKZBDCqBDCELtQ+LOYIxCXu+rerUOb7CCCwEQK/qABQAHBgFA78zEYWuL9BAAEEdkVgjyTnSQCjSAA678V03kPg/vEkba3aEEAAgZkSeKwCQAHAgUE78N0zXfFeDAEEEFhG4E8kgEEngCF0ofZhMUcg3rVsnfoSAQQQmDmBdlmgxwUvJsBLrLjvyoGvuuxv5rHOCyKAwAoEXuQogKMAHBiUA7+wwjr1LQQQQGDmBHZPcpYEMKgEsKvO0Pf7P2pwTpK2Jm0IIIDAXAgcmeRGRYAigAMLdaCtwcPnsuK9CQIIILCMwKsF/4UGf919/939WnP8n5atR18igAACcyOwd5JPKgIUARxYiAOfSLLX3Fa7N0IAAQR2InBEkq9JAAtJAGt1h37e7xGC9rCfo3dai/6JAAIIzJ3AixUACgAOzNWBX5r7KveGCCCAwAoEdkvy5xLAXBOA7r7f7n6tuX1fkrbmbAgggMAgCByU5GJFgCKAA1vqQHvS38GDWPF2AgEEEFhG4ClJtkkAW5oA1uoO/bzfIwNtbT1p2XrzJQIIIDAoAr+uAFAAcGBLHGiX3doQQACBwRJodyRrn1HqRDHgwOwcON1jfgcb8+wYAggsI3CnJBcoAhRBHJiJA19KcuCy9eVLBBBAYNAEvsP9AWYS/HXRs+uix8iyXe//4EGvdDuHAAIIrEDgp3WAigAObMqBZ6+wrnwLAQQQGAWB10sAm0oAY+xa7fNsjlq0E2ptCCCAwGgJtBuW/KEiQBHAgakceKdH/I425tlxBBBYRmCfJGdJAFMlAF30bLroMXL8cJL9lq0fXyKAAAKjJtDOYv6cIkARwIFVHfhiknZXTRsCCCDQFYHDklwuAayaAMbYsdrn2RytuGzp47L7dbXiDQYBBBBYRqBdHnilIkARwIEdHPjq0gO1HrJsnfgSAQQQ6JLAI5JcKwHskAB00bPposfI8fokj+5ypRsUAgggsAKBxyVpNzkZY8C2z+ZtVg7cmOSJK6wP30IAAQS6JtACXwuAswqmXgfLMTlwU5L2BE0bAgggUJLAM5K0QDimwG1fzddmHWjON/dtCCCAQGkC3+/jAAVQoSLwhiRPLb3iDR4BBBBYRuAxSa4plAQ220H6+3EehWgn/H3vMu99iQACCCCQ5JgkVysCHA3o1IHm9iOtdAQQQACBlQm0a6HdLGic3a2jEruet3aTnwetrLzvIoAAAghsJ3CfJJ/ttAuUJHedJHtl027v2+6CaUMAAQQQWAeBA5L8jSLAxwEjd+Ac9/Zfx2r3KwgggMBOBPZO8raRJ4Beu1rjWvtIxh8l2Xcnp/0TAQQQQGCdBHZb+r0TFAGOBIzMgTcl2X2djvs1BBBAAIFVCDzHvQIUASMoAr6W5NmreOxHCCCAAAIbIPDAJBeMIAk4PL724fEeGV2Y5KEb8NqfIIAAAgisg0A7OfD9igBHAwbmwAed7LeO1etXEEAAgU0SaOcFHJ/k1oElgR67WmNa/WjGtiQnJtljk077cwQQQACBKQi0ZwhcoghwNGBBDlyc5ElT+OpXEUAAAQRmSOCgJKctKAHojlfvjnvm84Ek3zZDj70UAggggMAGCLSPBJ6XpD1opeekY2yLn9+vJ3lhkuacDQEEEEBgIASOSnKeIkARtEUOfCLJEQNx3W4ggAACCOxEYM/JCYLtmes6Zgxm4cBNkxP92p0pbQgggAACAydwvyQfUgQogjbpwFlJDh+463YPAQQQQGAnAtvPDbhmk0lgFl2k1xjX0Yh2Pkm71NTlfTstKv9EAAEExkTgHknerQhwNGCdDrwryd3GJLh9RQABBBBYncBjkvzdOpOAjn1cHfss5uvTSb5vdYX8FAEEEEBgrATaE9qe5QZCjgYsKwSvmFza53D/WFe1/UYAAQSmIHDHJKckcbVAvU5/+9GCdk3/yUnuMIU3fhUBBBBAoBMC7bPe9ux2hUCdQqBd1ndqknt14rBhIIAAAghsgsA9l27t+pYkNy87NLy9U/T/PoqD9vCodya57yY88acIIIAAAp0SOGwpQfyBQqCrcwRax//7Sdq9IWwIIIAAAgisSqA96OWEpZPDrnJEYLTFwLWTj3faZaA2BBBAAAEEpiLwrZMzxC9UCIymEPjK0gy34q2d6GlDAAEEEEBgUwT2SnJskr9VCAy2EGhz85NJ2lzZEEAAAQQQmDmBdp7AiUkuVQwsvBhoH9G0kzePnvkse0EEEEAAAQR2QaA9He5Hk5yR5BbFwNyKgcb6L5L8SBJP6NuFnL6NAAIIIDAfAgdM7jB4epJ2uZlLB2fLoDE9c3I+RjtB04YAAggggMDgCLSbC704yblJtikGNlwMNXbnJHlRkrsObpbtEAIIIIAAAqsQuHOSZ0w+p25npzsysDqDdl/+drOe50n6q1jlRwgggAACoyLQHjbziCSvTnJ2knaDmuoFwY0TFq9K8vAkHsgzKqXtLAIIIIDARgjsmeTBk8+1W9d7eYGC4Jok7TyJdp3+45PsuxFw/gYBBBBAAIGeCLRHFR+Z5NlJXj85033MHxv889IRjw9MxtIewdzG1sZoQwABBBBAAIF1EGjnETwuyQsmt7b90yTnJWnd9KI/Qmj70Pal7dMbkzx/sq8HrmNcfgUBBBBAAAEENkigJdqHJnlqkucmeXmSk5L83tLHC6dNPl//5NJdDL84+a99zHBlknaf/O3FQ/u6fa/9bPvvtb9p5ym01/jdyWu2127v0d7rIUkk+Q1Omj9DAAEEEEAAAQQQQAABBBBAAAEEEEAAAQQQQAABBBBAAAEEEEAAAQQQQAABBBBAAAEEEEAAAQQQQAABBBBAAAEEEEAAAQQQQAABBBBAAAEEEEAAAQQQQAABBBBAAAEEEEAAAQQQQAABBBBAAAEEEEAAAQQQQAABBBBAAAEEEEAAAQQQQAABBBBAAAEEEEAAAQQQQAABBBBAAAEEEEAAAQQQQAABBBBAAAEEEEAAAQQQQAABBBBAAAEEEEAAAQQQQAABBBBAAAEEEEAAAQQQQAABBBBAAAEEEEAAAQQQQAABBBBAAAEEEEAAAQQQQAABBBBAAAEEEEAAAQQQQAABBBBAAAEEEEAAAQQQQAABBBBAAAEEEEAAAQQQQAABBBBAAAEEEEAAAQQQQAABBBBAAIHKBPZOctckRyf5niQ/nOTnkrwyySlJ3prktCRnJvk/k/8+l+SLSS5IcuXkv+uS/EvR/9rYt3NoTBqbzy7j1dg1hr83YdrYNsZPT/KYCfs2B20ubAgggAACCMyEwF5J7r2UwB+/lLCfleT4JG9JcvokUd1SNGkPtVhphUQrtN6Z5MQkL0zyjKUC4sFJvmUmRngRBBBAAIGuCOyf5DuTPDfJG5P8ZZJ/SrJNgu/myESbyzanZ0zm+N8leWiSNvc2BBBAAIECBO47OVT/qqXDx+9O8oUkt0r03ST6aY9OtLn/fJI/TtKcaB/j3KfAOjBEBBBAoGsCt5sc/m2Hgtth4Usk+rKJftrC4OLJuQcnTD4C2rfrlWJwCCCAwMgJHJzkaUlOTnJ2khslfAl/Rg7ckOSspXMJTkry1CR3GflasfsIIIDAqAnsMenwW5fWTv7ymX3dqwmm7fBn8fvtioU3TY4QuAph1KHEziOAwBgI3CvJ8yaH9K+eUXc3i2TgNWoXH9dPrg5pHzcdOoaFZB8RQACBoRPYPcmjk7whyWckfIf0R+LA30/uW/CoJM1hGwIIIIDAOgi0gHnM5PBqu3RLd43BmB24bHL/iOa0YmAdAcCvIIBAPQJHLA25fZ7fPlsdc8C37+ZvVw5cNClsWzGwW70lbsQIIIDANwi02+i22+ZeKOkreoo58OXJVQVHfmM5+AoBBBDom0C7prrdorXdUndXnZLvY1PJgXYVSzu51S2L+459RodAWQLtnuztXvrXSPwKHw6s6EBbG6dOLi0sGygMHAEE+iBw+0ln8zEBf8WAX6nLNdbpjup8evIAqgP7CAVGgQACVQi0p+i1m6S066MFfgw4sHEH2l0I21GBB1QJHsaJAALjJNAO87dg5VG5Gw/4kiV2KznQHlx0mo8HxhkY7TUCvRJo1zY/ZXKv9JUCl+9JaByYrQP/N8mzkrQHXtkQQACBuRNoZyy/YCkQXeAwv485OLAQB9o9M34pyf5zX/3eEAEEShJoDz5plyx9RdBfSNDXTc+2m+6BZ7vb4PFJPLa4ZEg2aAS2nsBek8Tv9rwSUA9Js8cxXDq3UTckAAARwElEQVQpBPbZ+nDgHRBAoAKBPSefN7pFr8TfY9LscUztzprtyYQeU1whQhsjAltAoJ3c1+7Y93mH+h3q58AoHfjS5KidkwW3IEB6SQR6JfCDST4r6I8y6PfY0RrT5o4+tccT/0Cvwcq4EEBgNgQOS/IeiV/i50CXDpyR5KjZhAqvggACvRC44+TOfTcL/F0Gfh305jronvi1Nd6eyeEWw71Eb+NAYIME2meD7ZK+dvZwT0HOWMwnB1Z34IrJiYLOD9hg8PRnCIyZwGOTnCfxK3w4UNqBdn7AE8ccyOw7Agisn8Bdlh4s8r8E/dJBX3e8endckc/bktx5/WHEbyKAwNgItMv62l3DKgY4YzbvHFjdgSsnHwmOLa7ZXwQQWIXAoUk+IPErfDjAgXU48L4k91wlnvgRAgiMgEC7mU87ye+adSx63dHq3RE++FRy4PrJbYX3GEGcs4sIILATgSOSnCPx6/g4wIFNOHB2ksN3ii3+iQACAyXQuv6XL/134yYWfaVOx1h19hxY3YEbJkcDWmyxIYDAQAncPcmHJH4dHwc4sAUOfDDJ3QYa++wWAqUJPC3J5Vuw6HVHq3dH+OBTyYGrkvxo6Uhr8AgMiMC+k9v4VgpCxirpcmCxDpyaZP8BxUG7gkA5Ag/21D6Heh314cCCHGh3EXxQuahrwAgsmEA7GedlTvQT+BcU+HXfi+2+h8S/nSB4XJLdFhwTvT0CJQh8a5J3C/ySPwc4MCAHTktyhxIR2CARWBCBw5J8ekCLfkidiH3RlXJgsQ58Nkm7/4gNAQRmTOApSa6W/HV9HODAgB1odx19+oxjn5dDoCyB9tna8UluHfCi13kttvPCH/8hObAtyYlJ3DiobNoy8FkQ+DdJ/lTi1/FxgAMjdOC9S5co33EWgdBrIFCNwNFJvjDCRT+kTsS+6Iw5sFgHPp/kyGrB23gR2AyB703yVclf18cBDnTgwLVJnryZgOhvEahC4DlJbupg0eu8Ftt54Y//kBy4OcnPVgnixonAtATayX4nSPw6Pg5woGMH2smBbho0bXbw+10TuF2S3+p40Q+pE7EvOmMOLNaB30uyZ9cR3eAQWCeBb0nyPslf18cBDhRy4Iwkt19njPRrCHRJ4JAkHy+06HVei+288Md/SA58Msndu4zsBoXAGgTun+QiyV/XxwEOFHbgwiTtFuc2BMoQeECSfy686IfUhdgXXTEHFuvAJUmOKhP9DbQ0gQcmuUzy1/VxgAMcuM2BK5M8tHRmMPjuCTw4yRUW/W2LXue12M4Lf/yH5MBVSR7efRYwwJIEjnF3P4lf8ccBDqzqQLtr4PeUzBAG3S2BRydpj8kcUrVtX8wHBzgwRAeuT/L4brOBgZUi8MQkX5P8FT8c4AAH1u3ADUl+sFSmMNjuCDwhSRN5iFW2fTIvHODAkB1osbPFUBsCoyPQTmZpn2cNeYHZN/PDAQ4M2YH2ccCjRhf97XBpAkcnaZe1DHlh2TfzwwEOjMGBq5M8qHRGMfjRELjf0mMvvyL5K344wAEOzMyBS5O0G6jZEBgsgXZf6y9Z9DNb9GPoTuyjLpoD83Gg3Tr90MFGfztWmsBBSf5e8pf8OcABDmyZA59PcnDpTGPwgyPQHmv5MYt+yxa9Dms+HRbOOI/BgfOS3GlwWcAOlSSw79KlKmdL/pI/BzjAgbk5cGaSfUpmHIMeDIHdkvyhRT+3RT+G7sQ+6qI5MB8H3pmkxWAbAgsh8GuSv+TPAQ5wYGEOvGohkd+blifwbIt+YYtehzWfDgtnnIfuwLYkx5bPRgDMlUC7M5Vb/AqOQw+O9o+jFRy4yRME55r/Sr/ZvZO0m1JUWFjGaJ45wIExOHD50vlY7SZsNgS2jEC79OSzkr/ihwMc4MDgHPhCkgO3LPp74dIE9kzyVxb94Bb9GLoT+6iL5sB8HPhQkharbQjMlMCbJX/JnwMc4MDgHXjDTCO/FytP4Ecs+sEveh3WfDosnHEegwPPLJ+1AJgJgcOSfFUBoADgAAc4MBoHrk1y+EwygBcpS+Bbkpxv0Y9m0Y+hM7GPOmgOzMeBzyT51rLZy8A3TeD3JX/JnwMc4MBoHXj7prOAFyhJ4IUW/WgXvQ5rPh0WzjiPwYFfLJnBDHrDBB6e5EYFgAKAAxzgwOgdaHcKfOSGs4E/LEWg3eznIot+9It+DJ2JfdRBc2A+Dnw5yR1KZTKD3RCBd0j+kj8HOMCB7hz4ow1lBH9UhkB7qpSKHAMOcIADfTrwY2WymYFOReBuSa5UACiAOMABDnTrwFVJ7jFVZvDL3RPYPckHLfpuF71urs9uzrya14048NdJWsy3IfCvBH5Z8pf8OcABDpRx4EVyHwKNwBFJvm7hl1n4G+kY/I1OkwN9OXBDkqOkwNoE9k7yd5K/5M8BDnCgnAMfT7JX7RRYe/SvsejLLXqdXF+dnPk0n5tx4Fdrp8C6oz8ySbtD1Gbk8bf4cYADHBivA+2Or+1jYFshAu0M0DMlf8UPBzjAgfIOnOuqgELZP8nPW/TlF72ubbxdm7kzd7N24Hm1UmDd0R6cpN0MYtYCeT1MOcABDozTgauTHFI3LdYZ+bskf8UPBzjAAQ7s5MDb6qTBmiN90k4TrlofZ7Vu3swbBziwFQ78QM3U2P+o90tygQJA1c8BDnCAA7tw4EtJ9u8/HdYb4et2MeFbUUV6Td0JBzjAgXE68Np66bHvEd8rSbv1owWJAQc4wAEOrOZAuzfAffpOibVG58Q/C361Be9n/OAAB5Y74ITATmqERyTZpvt39IMDHOAAB9bpQMsZj+wkB5Ydxm5JzlrnhC+v/nytG+AABzhQ24FzkrQcYhspgZ+Q/FX8HOAABziwQQeeOdLcV36390nSLulQxWPAAQ5wgAMbcaBdOt5yiW1kBF4p+St+OMABDnBgkw68bGS5r/zuHpTkmk1O+kaqRX+jy+AABzjQlwPtOQEHls+qIwJwsuSv6ucABzjAgRk5cOKI8l/pXb1LkutnNOkq+b4qefNpPjnAgY04cF2SdmTZNnACJ0n+qn4OcIADHJixA78+8NxXfvfa5zTXznjSN1It+htdBgc4wIG+HHAUYOAlhu6/rwUngJpPDnBgSA44CjDQIkD3L1AMKVDYFz5yoD8HHAUYaAGg++9vsQmg5pQDHBiaA44CDKwI0P0LEkMLEvaHkxzo04F2FODOA8uBpXenVWQWGwYc4AAHODAPB361dMYd0OD3S3K5AkABxAEOcIADc3LgiiQt99gWTOAX5jTh86gqvYfuhQMc4MA4HPiZBee+8m/fntX8aQWAqp8DHOAAB+bswGeStBxkWxCBJ895wlXm46jMzZN54gAH5uHA9y0o93nbJH+hAFD1c4ADHODAghx4n0y8GAJHJNm2oEmfR2XpPXQwHOAAB4btQMtBhy8mBdZ+1/8h+av6OcABDnBgwQ78Zu1UPP/Rtxv/fG3Bk64yH3Zlbn7MDwc4MA8HWi5qOck2JwK/LPmr+jnAAQ5wYCAOvGROuc/bJDl/IJM+j+rSe+hiOMABDgzbgU/JzPMh8F2Sv6qfAxzgAAcG5sDD5pMCa7+Lk/+GXQnrVMwPBzhQ0QEnA25xbbJ/kq8OrOqrKLoxC/Ac4AAHdnSg5SbPB9jCIuCnJH+H/TjAAQ5wYKAOHLuF+a/8S//NQCddJbxjJYwHHhzgQEUHPlg+S28RgPu585+qXwHIAQ5wYMAOtDsD3meLcmDpl33tgCe9YqVrzDo8DnCAA9/swKtLZ+otGvwFCgCVPwc4wAEODNyBlqtsMyTw0IFPuCr4m6tgTDDhAAeqOvDAGea/8i91ogJA1c8BDnCAAyNx4NfKZ+0ZAvj8SCa9arVr3Do9DnCAA99w4LMzzH+lX6odSiEWBhzgAAc4MCYHjiyduWc0+HYoZUyTbl/NFwc4wAEOnDCjHFj6ZT6tAFAAcYADHODAyBz4ZOnMPYPBt0MoKmkMOMABDnBgjA48YAZ5sOxLtEMoY5x0+2zeOMABDnDgV8pm7xkM/KMKAAUQBzjAAQ6M1IFzZpAHS77EgUluHemkq/xV/hzgAAc4cEuSO5XM4Jsc9I9J/qp+DnCAAxwYuQM/vMlcWPLPf2fkk676V/1zgAMc4MBvlczgmxz0hQoAlT8HOMABDozcgS9tMheW+3OX/6madU4c4AAHenHgsHJZfBMDPm7kFV8v0hqHAMwBDnBg8w48fxP5sNyfvl8B4LAfBzjAAQ504sCflcviGxzwPkmu72TSVc6br5wxxJADHBi7A9cl2XuDObHUnz1G8lf1c4ADHOBAZw4cUyqTb3Cwr+hs0sdeudp/3RcHOMCBzTvw0g3mxFJ/dpoCQOXPAQ5wgAOdOfDuUpl8A4PdLcmlnU26ynnzlTOGGHKAA2N34OIN5MRSf3I/yV/VzwEOcIADnTpwaKmMPuVgj+100sdeudp/3RcHOMCBzTvQnnFj2wWB/6YAUPlzgAMc4ECnDrx5F7nPt5N8vNNJVzlvvnLGEEMOcGDsDnxUpl+ZwP5JblYAqPw5wAEOcKBTB25Kst/KKbD2d7+70wkfe8Vq/3VdHOAAB2bngBsCrVDrtIclkAwDDnCAAxzo2YFfWCH/lf/WWxQACiAOcIADHOjcgf9aPtuvAOCszie954rW2HRsHOAAB9bnwF+vkP9Kf6vdAfAqBYDKnwMc4AAHOnfgytLZfoXB36PzCVcZr68yxgknDnCgggOHrJAHy37ryQoAVT8HOMABDhRx4Alls/0KA39ZkUmvUNkaow6OAxzgwOoOHLdCHiz7rVMVACp/DnCAAxwo4sBvl832Kwz8Y0UmXVW8elWMDz4c4EAFBz68Qh4s+61rFAAqfw5wgAMcKOJAu+rNluSAIhNeoao1Rt0bBzjAgfU5cHsVQPJgBYCqnwMc4AAHijlwtAIgeVqxSVcdr686xgknDnCgZweeogBIXqwAUPlzgAMc4EAxB9oD8Mpvbyw26T1XtMamY+MABziwPgdOKp/9k/xvBYDKnwMc4AAHijnwLgVA4h4A66sWVdU4cYADHOjHgY8oAJIrilV9FnA/C9hcmksOcGCjDlxavQDYX/J32I8DHOAAB4o6sF/lIuBeRSd9oxWjv9NtcIADHOjHgXtULgDcBKgfkQUlc8kBDnBgOge+o3IB0J6JTBgMOMABDnCgogOPq1wA/JgCQAHEAQ5wgANFHXhm5QLgl4pOesVK15h1eBzgAAd2dODnKxcA/1EBoPLnAAc4wIGiDryycgHwpqKTrgresQrGAw8OcKCiA6dULgD+QAGg8ucABzjAgaIOvLVyAfDeopNesdI1Zh0eBzjAgR0dOK1yAXCmAkDlzwEOcIADRR34m8oFwEeLTroqeMcqGA88OMCBig58uHIB8AkFgMqfAxzgAAeKOvDxygXAZ4pOesVK15h1eBzgAAd2dOD8ygXABQoAlT8HOMABDhR14AuVC4B/LDrpquAdq2A88OAAByo6cGHlAuBSBYDKnwMc4AAHijpwceUC4Oqik16x0jVmHR4HOMCBHR24qnIB8DUFgMqfAxzgAAeKOnB95QLglqKTrgresQrGAw8OcKCiAy0Hlt1uVACo/DnAAQ5woKgDN5TN/kmcBKjqr1j1GzPvOcCB5kDpkwDPKVr1WfwWPwc4wAEOtOfhlN1OUgA49McBDnCAA0Ud+M9ls3+SRxWddJW/yp8DHOAAB76rcgGwR5JLFAGqfw5wgAMcKOZA+/x/98oFQBv7y4pNuqpf1c8BDnCAAy+pnvzb+PdJ8mVFgOqfAxzgAAeKOHBRkn0VAP+fwA8n2VZk4lX+Kn8OcIADdR1oue6pkv+OBF6jAFD9c4ADHOBA5w68esfU51+NQDsZ4h2dT7yqv27Vb+7NPQc48HYn/u264Nlt6Ucn+DhAB6AQ5AAHONCRA+2w/4mS/66T//KfPD3JhR1Nvspf5c8BDnCgpgPtJHef+S/P8Ov4ul0d8NLJvZItnJoLx7ybdw5wYKwOtOv8f3lypds6Up5fWYlAOzfgmCSvT3LWpCDwFEFBYaxBwX5zlwP9OdByUkv4LUe9Lskjx3C4//8BjLAhF+mW5OgAAAAASUVORK5CYII=;" vertex="1" parent="1">
          <mxGeometry x="107" y="66" width="26" height="26" as="geometry" />
        </mxCell>
        <mxCell id="iHRBWM1eIZJ4OxDIeNG5-6" value="" style="shape=image;verticalLabelPosition=bottom;labelBackgroundColor=default;verticalAlign=top;aspect=fixed;imageAspect=0;image=data:image/png,iVBORw0KGgoAAAANSUhEUgAAAgAAAAIACAYAAAD0eNT6AAAAAXNSR0IArs4c6QAAIABJREFUeAHtnQfYXUW1hr+QhJJQkwhIE9AgSlFARZoRQRAVEBG7EUFzUVBsV4qoiAroVYqKAoogVZqgVOFSlH5FMFIFAgjSayAQICTes8I+8PfT9p49s+bdz/M/f9tnz8w736xZM3tmjcQFgXwILCNpbUnvk/RpSbtJ2kvSgZJ+Kek4SWdKukjStZJulzSjz9fdkh4f5uvB4r6/S7pG0oXFs06WdISkQyUdIOkrkj4paXNJazbStTwtkE8VUFIIQAACEIBAuQQmSdpQ0lRJe0r6qaTTJV0h6V+Njv55Sf+J9OtFSQ9Imi7pfEnHSvpuw6H4lKQNJC1dLiqeBgEIQAACEEiLwLjGqPrNknaQ9M2io7y6GJHH2rmXla+Zkv4m6RRJ+0vauTFTsYmkJdKqQnILAQhAAAIQGJmATY2/V9K3JJ0hyabfy+pMvT3HXlPYbIex2lrSiiOj5b8QgAAEIACBOAgs26ezt3fw99LZ9+zsPFKsQ/iRpI9IWi6OqiYXEIAABCCQM4FVGiP6HSX9lpF9zx19J7MZd0g6urEm4jOSJucsQMoOAQhAAAJhCLxW0k5Fh28L8jrptLi3Ol73S/pdsRtiLXYjhGkMpAIBCEDAM4GlJH2sWKR3Dx1+Mg6PbWW0GQJbZMniQs8tlLJBAAIQKJHAqpKmSTor8i13zCi0N6NgWxMtFsK+jTpdr0Sd8CgIQAACEEicwGhJ75D0P5JuZZSfzCi/WwfoTkk/bwQ52qqxDXHBxLVL9iEAAQhAoEMC1ulvKekYSY/R6bvv9IdzFqzuj5S0KesGOmxB3A4BCEAgMQJrFOFyLVrdcJ0Cf8+TzaNFqOONG9ELRyWma7ILAQhAAAJDEFhZ0h6NxXz/pNPH6WlTA7bDw848YM3AEA2KP0EAAhCImcDE4rAaW/zFiB4GvWjgOkm7SFosZsGTNwhAAAK5E7ARm51Y9wwdP45PyRqYXWwHXTf3Rkb5IQABCMRCwEZmtm3v+pINfi+jRj7re9bBZpZMc4vG0gjIBwQgAIGcCKzdOF72F5KeouNntF+TBp4sthSumVPDo6wQgAAE6iCwgKQPSrq8JoPPyN73yL6X+j1f0rvqaBSkCQEIQMAzAQvYMlXSzXT8jPYj14C9ijKtjvHcICkbBCAAgaoJ2DvW3TlWl04/8k5/qJkDizho2h1XdSPh+RCAAAQ8EXhVozAWu50ofUy5D9W5pvS3hwstT/DUQCkLBCAAgbIJrFgs7Hs2wRFfSp0SeQ3vWNli1e9LWrLsRsPzIAABCKRMwAL3HCiJjj98x4QzEJa5zWrZ7BaBhVK2WOQdAhDomcD4IkyvbaeiI4JBThqwVwMWonqhnlsRD4AABCCQEAFb1W+BVDiUh04/p05/qLLauQPWFuyESi4IQAACbgnYPv4dJM1gxM+MBxropwHb4mptg5MI3Zo/CgaBfAls0TBwN2H0+xn9oUaE/C3vWZE/S7Iol1wQgAAEkiewQnGICh1b3h0b9d9+/c8t2syk5Fs/BYAABLIksEixyOlpRv2M+tFAVxqwHQMWTIj1AVmaUAoNgTQJbM17/q4MPqPk9kfJObH6m6QN0zQF5BoCEMiFwGRJ5zDao/NHA6VrYF7xWmCZXIwJ5YQABNIgsLCk/SU9j+Ev3fDnNNKlrK1nQCxmxn+xWyANw0guIeCdwNs5pY9OH8cvuAYuk2QzblwQgAAEghOwUb+F730R4x/c+DNSbj1SzoHRM8VCW4uvwQUBCEAgCIENJN1Cx0/Hjwai0MDlkl4fpOWTCAQgkC0B29rHqJ/RZw6j69TKaAdp2dkCbBnM1jxTcAhUR2CKpDsY8UUx4kutcyK/4ZxGmw1YrTozwJMhAIGcCIxpnFh2gCSLToYhhwEaiF8DNhtgBwxxQQACEOiawEqSbESB0YcBGkhPA6dLWqrr1s8HIQCBbAlsJ8lCkWL4YYAG0tXA3UQRzNaGU3AIdEzAtvcdSseP44MG3GhgTsMK7CuJ7YIdm0M+AIF8CKwu6e8YfjeGn5F7uiP3KuruQknL5mPOKCkEINAugamSZtH50/mjAdcaeFDSFu0aBe6DAAR8E1hI0q8x+q6NfhWjSZ6Z7uyCRe/cm/MEfBt2SgeBVgQmSbqUzp/OHw1kqYFTJI1vZST4PwQg4I/AmyXZCmFGcjBAA/lqwNb8rOzPvFEiCEBgOAIfkWQHiWD4YYAG0MAjjZnAdw5nLPg7BCDgg8CoRjFsO9A8On+cHzSABvpowLYK7ubDzFEKCEBgIIHFJJ3Zp8Ez8mPkhwbQwEANHCFp7EDjwe8QgEC6BFbl+F5Gezh/aKBNDVwkaWK65o6cQwACTQLrSHqgzYY/cDTA74wQ0UCeGrhN0ipNI8J3CEAgPQKbSZpJ5+9+5Pe4JDPYV0s6V9Lxkn7akKut9/hScTLc5yTtUHzZOQ+bD/jats//dy4+Y++Evy3pEEnHSjq7EUTmSkm3SrKFY6wl8e0c3C/pTemZPXIMAQh8VNLzdP4uOv97JP256IT3k/TZIpqbhW5epEapWxCp10l6V2NL6Y6NfJjDcbQkm0K+EwfBhfaeZIdAjS2MpCHQBYEvSppL55+cAbaRvB2/bAuxdi9G6Et3Uf+xfGRBSWsUMwvmHJwlaQbaTE6Xz0n6cCyiIh8QgMDQBGyb3w/p+JMwsDayuqBxQpuN6N8nyaIy5nItUTg3+xROgb1OYK1B3AwsfPAuuQiUckIgNQK2dee3GNJoO5LbJf1K0k7FqJijWfu3sMmSPtlYff4zSTeg42h1bDM5XBCAQEQEFi4WaDGKimcU9Vijoz+1WEzHaurOG8urG+sI7ITK49jFEp0z8EtJozuvUj4BAQiUTcA6f1v5TedfLwNbc2Er5O2UtbdhIEuVub3aWlvSVyX9rySLWofe62VwEhovVeM8DAIdE7BFVrawCmNYDwN7L2qL9mzB3vId1x4f6JbAhGJ2wE6zm4X+a2v/xn9Mt5XI5yAAge4J2Mj/PIxfcONnWyvPkWR75XNauNe9Uqv95OKSPla8buGAq/CO8AnMBFQrcJ4OgYEEbP81I/+wxu4mSXtISnlb3kAdefvdYiJYsKMLiUEQ1DE+mZkAb02J8sRKgM4/XMdv+/JtT/66sYqBfA1LYKXCYbOARLwiq54BTsCwUuQfECiHgE37n49Bq9SgW3hbe7XyQUm2xoIrbQK23XILSfa+msWD1ToCtmOD3QFptxdyHykBG/n/ic6/ss7/aUmHSXp9pPVPtnonsKKkAyXZFk1mBaphgBPQu055AgT6EbBRjO0px2iVz+CuxkryrzcOvFmyH3F+8UxgXBGf4UbaVCU25RhJtnWTCwIQKIGAjUzp/MtlYHv2bZqfKcsSBJroI6yTslMRea1WbtsyW/WjRDVBtiEQFYHv0PmX6vxcIWnrqGqYzMRA4M3FOgGOOC7PGbDATVwQgECXBKbR+ZfW+VvAHjr+LoWY0ccs4qAtGMQR6N0RMIafzkg7FBUCpRHYTpJFmmPqvzcGF0uaUlqt8KBcCKwj6QwcgZ7tjwXOencuoqGcECiDgHVYs+n8ezI+N0t6fxmVwTOyJvAWSX+mLfbUFi1C49uzVhGFh0CbBNaUZAFoGPl3x+C+YoU3i/vaFBy3tUXAXh/Zkc60y+4YPCxptbZIcxMEMiVg+5StA8PIdM7ADoWxs8rHZ6odil09AQsM9WXiCHRtn+6QtEz11UQKEEiPgMUxv5bOv2PjYguNfiNpufSqnBwnSmApSQcRWbDjtmoDm2sawZgsoikXBCBQELD9yCfS+XdsUG6TtBkqgkBNBNZqhBm2eBLM2HXGwKIFckEAAgWBvTAiHRlRWyBp0/0WHpkLAnUSMOd9qqRHacMdteGv1VlppA2BWAhsyXa/jgzHpZJWj6XyyAcECgLLSjoWJ6DttjxX0ntRDwRyJvAGSTMxGm0ZjUckfYoY4zk3lyTKvpWku2nTbbVp2+00OYlaJZMQKJmALSSyd9i8P2zNwE5BXL5k/jwOAlURWFzSEbTttmzbrZKWqKoieC4EYiRge9TPwUC0NBDPStqdUX+MEiZPbRCww6Zs5gonf2QGdhgTcTvaEBS3+CDwY4xCS6No24UIHOJD7zmX4tWSzqO9t2zvP8hZJJQ9HwLbEl98RGMwpyEFW+E/Jh9JUFLnBGynwBckWUhcZgOGZmDxPLZxrgOKlzkBi/T3GEZgWCN4r6QNMtcIxfdLwBb92hkVOAFDM7CtlCv4rX5KljMBG9FeRuMf1vjZ9j7bSsUFAc8EFpV0EnZgWDvwF9YDeJZ/vmWzd1x4/oMZ2NTfoUz559swMi35NEl2VC42YTADewXIBQE3BN5JsJ8hDZ3FQNjeTS1TEAh0RsCOGiZmwGAHwIIEEeK7My1xd6QE7PSrB/D0BzkA10t6baR1RrYgEIrA0pIuwj4Msg//ljQpVCWQDgSqILBAY1GbBbFhmq8/gzMkjasCOM+EQIIEbA/8z7ETg+zkucQASVDNZPllAnvTqAc1anvfb44RFwQg0J+ABb2y6W8GDK8w+Ep/RPwGgTQI2Ps929NOY36JwYvFXug0ao9cQqAeAtsRL6CfzbSFkmvXUxWkCoHuCCwo6R90/i835Kclvb87lHwKAtkReLMki4nB4OElBrZeaGx2KqDAyRL4Ho33ZeN1n6R1k61JMg6BegjY4VfW8eEEvMTgm/VUA6lCoDMC60h6gYY733DZSV9E9upMP9wNgSaBJSVdgS2Zb0uek7RGEwzfIRAjAYv29zca7PwGe1PjSFQ7CIULAhDonoDtlrkAmzLfplzHq4DuhcQnqyfwHRrq/IZ6raSJ1eMmBQhkQWChxkK432Nb5tuWb2RR4xQyOQK2UpXQnpLF8l48udojwxCIm4DFCvgtToDsVcAb464qcpcbAZv6/yuNc/6554vkVvmUFwKBCJgT8GvsjK7iwKBAiiOZtggQ8Eey6H42VckFAQhUR2AUUQPnvwr4cnWIeTIE2iewqqTZmXvlf2BxTvuC4U4I9EjAnIDcZwKekrRcjxz5OAR6JmCdX857de0gk4V7psgDIACBTghYOO0TM7c9x3UCjHshUDaBd2feAO1d3KJlQ+V5EIBAWwRsTcCpGdugeZKmtEWKmyBQMgEL92uBbnId/U+XNKFkpjwOAhDojIDZITs1L1c7dIMkW4TNBYGgBPbMuNHdJmnZoLRJDAIQGI6ABQv6c8b2aNfhwPB3CFRBwOJ02wE3OXrddxHetwpJ8UwI9ERgiYwPIHtc0qt6oseHIdABgVwX3zwqaXIHnLgVAhAIR2AlSfdnOjA5MhxmUsqZwMaSbPFJbqN/O+DoXTlXPGWHQAIE7OTNWRnap7mNtRBvS6B+yGLCBGzVrS1+y63zN4dnasL1RtYhkBOBbSVZh5ibnbKTE7kgUBmBnTJsVGZE9quMKA+GAASqIPCVTG3VNlXA5JkQsO02d2bYqE6RZJHHuCAAgbQI/CxDe2XbAi1IEhcESiWwe4aN6Uqi/JWqIR4GgZAE7JXlBRnarU+GhExa/glYtLuHMmtI90laxn/VUkIIuCYwSdI9mdmuGZJsxpYLAqUQ2CezBjRH0ialkOMhEIBA3QRsdfxzmdmwL9QNnfR9EFhSkgWayGlFLUdt+tAupYBAk4B1iDnZMIuHML5ZeL5DoFsCP8ys4ZzJor9upcLnIBA1gWMys2UWrp0LAl0TeLWkZzJqNBbj30KKckEAAv4ILCLpuozs2RMcWOZPxCFLdFhGjcUcnbVCwiUtCEAgOIHVMjvH5LvBCZOgCwJ24M/zGTkAFuSICwIQ8E/gcxnZNTu/xHZxcUGgIwL/k1Ej+UNHZLgZAhBIncBpGdk3i4rIBYG2CSwu6clMGsjD7PdvWxfcCAEvBOz43AcysXH3EhfAi2zDlGOvTBqGbQvaPgxSUoEABCIjYHHzc9kauGNk7MlOpAQWyuhM7aMirQOyBQEIhCHwq0ycgFs4IyCMoFJPJZcFMndJslcdXBCAQL4EbIHcHZk4AXZMMhcEhiVgp0j9M4PGME/SlGEp8A8IQCAnAptJMpvg/XWAHW7GBYFhCXwog0Zgjdym/bggAAEINAkcl4ntY+DTrHG+DyJwTQaNwFb9TxhUcv4AAQjkTGBpSY9lYP/Y8pyzykco+8YZiN9G/1NHYMC/IACBfAnsnIENfFHSSvlWMSUfjsDxGYj/Ug76Ga76+TsEsicwStLFGdjB/bKvaQD0IzBR0mznwrewxm/oV2p+gQAEINCfwOslPefcFloApLH9i81vORP4mnPB29Q/h2LkrHDKDoH2CRyQgT3coX0c3OmZgE17ed/6d7ekhT1XImWDAARKI2DxQR5y7gRcVBotHpQ0gXc5F7qN/j+edA2ReQhAIDSBXZzbRYt7YK87uDIncLJzoV9PCMzMFU7xIdA5gdGNc0JucG4bD+ocC5/wRMBOxPK+4MWifHFBAAIQ6JTAe507AE9IGtcpFO73Q2BP5wI/y09VURIIQKAGAhc6t5GfqoEpSUZAwBb/zXAs7jmS3hgBZ7IAAQikS+BNkuY6tpN/SrdqyHkvBDZyLGpb+Hd4L3D4LAQgAIGCwAmObaVFBlyWms6PwGGORf2CpNfkV6WUGAIQqICABRDzPAvwpQqY8ciICYyR9KBjB4DRf8TiI2sQSJDA7xzbSzsEjisjAls6FrON/lfJqC4pKgQgUD0BW0/keRZgteoRkkIsBI5x7AAcFQtk8gEBCLgicKpju/kdVzVFYYYlYCFxn3QqZFvQgic7bNXzDwhAoAcCazieBbi9By58NCEC2znt/G3l/3EJ1QNZhQAE0iPwe8f2863pVQc57pSA19C/9n5u9U5hcD8EIACBDghs6NgBOLgDDtyaIIHFJD3rVMBnJ1gfZBkCEEiPgK2atxlHb1//Sq8qyHEnBD7iULTNRvieTkBwLwQgAIEuCXzCsR1dq0smfCwBAvaOvNlhevp+Gyf+JaA+sggBHwTGSrrXqS3d20cVUYqBBBaQ9JBT0e46sLD8DgEIQKBCAvs4taVXVciMR9dI4O1OBfuUpMVr5ErSEIBAfgTsKPXZDm2qLabmbACHet7PoVjtNcYhDuuKIkEAAvET+I1Tm/qZ+NGTw04J/M2hWOdJmtwpCO6HAAQgUAKBDRzaVBtUnV4CGx4REYFXS7LO0tPCPyvLnyNiTFYgAIH8CNzi0K7OkmQRY7mcENjZoUjNAdjJSf1QDAhAIE0Cezm1rXZgHJcTAjal4230/4wkC2zEBQEIQKAuAstLsjNIvNnXQ+sCSrrlElhQ0kyHAiXuf7k64WkQgEB3BM5zaF+nd4eCT8VGYCOH4jRve7PYQJMfCEAgSwIfdWhjbc3YpCxr01mh93QoTotZbYGNuCAAAQjUTcAWzD3u0M7aybFciRM416Ewf5B4nZB9CEDAF4FjHNpZYqwkrtHRkp50KMx1Eq8Xsg8BCPgisLVDO3u9ryrKrzTrOhTlXZJG5VeVlBgCEIiYwEIOF1tbWOCJETMnay0IfNmhA/CTFmXm3xCAAATqIHCSQ3v7gTpAkmY5BDzu/9+4HDQ8BQIQgECpBHZw6AAcXCohHhaMgE2Tezv+18pj6xq4IAABCMRGYFFJzzpzAlgHEJvK2szP6s6EaHv/j2yz7NwGAQhAoA4CZzqzuxblcHwdIEmzNwKfcyZEcwDe2xsSPg0BCECgUgIe7a4Fk+NKjMDhzhyA5/FEE1Mg2YVAfgRe48zu2sDri/lVY/olvsaZEC9Ov0ooAQQgkAGB253ZXgtyxJUQAVsoZ6flmffm5WvvhPiTVQhAIF8Cv3Bkd63/uCHfqkyz5G90JkAT4dvSrApyDQEIZEbAYuh7GXhZOVgImJiAP+FMgE+w/S8xBZJdCORLYElJc5zZ4A3zrc70Sv4jZ+KzgEZcEIAABFIhcJUzG8xCwFSUJ+kCZ+L7fELsySoEIACB/Z3ZYBYCJqTph52Jb+2E2JNVCEAAAts4s8HTqdI0CKzgTHhP8/4/DeGRSwhA4GUCSzuzw89hh1+u26h/sGh5nlagXho1bTIHAQhAYGgCM5zZ4lWGLiZ/jYnA7s5Ed2BMcMkLBCAAgTYJHO/MFm/ZZrm5rUYCP3UmOttTywUBCEAgNQK2ct7TbCw7ARJQ4LnORLd8AszJIgQgAIGBBN7qzBb/bGAB+T0+Av90JLp/x4eXHEEAAhBoi8BYSbZ4zsssgG0v54qYwBhJLzgS3B8jZk3WIAABCLQiYNvnvDgAd7cqLP+vl8CqjsRmjeaAenGSOgQgAIGeCJzkyCbPlbRITzT4cKUEtnAkNnMAplZKi4dDAAIQqJbAPs5s8lrV4uLpvRCwkLleppusHG/pBQafhQAEIFAzAW8nA7Irq2ZBjZT8Txw5APMkLTpSYfkfBCAAgcgJrObIJtugbLfIeWedPTs1z8sMwF1Z1ySFhwAEPBAYLWm2I7v8Aw+V4rUMVzgS2jleK4lyQQACWRG43pFdPjqrmkussHc4Epq9zuCCAAQgkDoBTzOzf0q9Mjznf5YjB4Cwk56VStkgkA+BgxzZ5Rvyqba0SjrekchsHcO2aeEntxCAAASGJPBlR7b5sSFLyB9rJ+AtCNC6tRMlAxCAAAR6J+BtKyDBgHrXROlP2MCRl2kzAJNKJ8QDIQABCIQnYIMZL7uzrByrhEdIiq0IfMCRyJ5pVVj+DwEIQCARAhMd2WZzADZKhHtW2ZzmSGR2oiEXBCAAAS8EnnZkn22wyRUZgW85EtiFkbElOxCAAAR6IeDpmHbOaOlFCRV99hBHDsCJFTHisRCAAATqIHClI/tMOOA6FNQizV87EtjPW5SVf0MAAhBIicDZjuzzXimBzyWvns6d3i+XSqOcEIBAFgSOdeQA7J9FjSVWyD84EthXEmNPdiEAAQiMROBgR/aZGdqRarqm//2vI4HtWBNDkoUABCBQBYFvO7LPv60CEM/sjcBVjgS2TW8o+DQEIACBqAjYwjkvwYDOiIosmZlPYLojgb2DOoUABCDgiMDHHdnnixzVi5uieDoK+M1uaoWCQAACEJA+6MgB+CsVGh+BBx0JbI348JIjCEAAAl0TeL8j+/yPrinwwcoIeAo1uVpllHgwBCAAgfAEtnDkANwYHh8ptiIw25HA7GhjLghAAAJeCExxZJ9v9lIpnsrhyQFYwVPFUBYIQCB7Ap6Oa78l+9qMEIAdoetlm8kyEfIlSxCAAAS6JbCeI/t8a7cQ+Fx1BGY5EtiE6jDxZAhAAALBCazlyD7fFpweCbYk8JQjgS3RsrTcAAEIQCAdAms6ss+3p4M9n5zOdCSwiflUGyWFAAQyIODpFYDFnOGKjMCTjhyA5SJjS3YgAAEI9ELA0yLAO3sBwWerIfC4IweAbYDVaISnQgAC9RDwtA3w7noQkupIBB5z5ACsPlJB+R8EIACBxAh4CgTEIsAIxfeIIweAswAiFBhZggAEuibwPkf2+fquKfDBygjc60hgb6uMEg+GAAQgEJ6Ap8OALg+PjxRbEbjJkQOwSavC8n8IQAACCRHwdBzwBQlxzyarVztyAGy6jAsCEICAFwK7ObLPZ3ipFE/lMK/MSyjgqZ4qhrJAAALZE/i2I/t8fPa1GSGA0xwJ7CsR8iVLEIAABLolcIgj+3xEtxD4XHUEjnYksO9Xh4knQwACEAhO4FhH9vng4PRIsCWBQx0J7PCWpeUGCEAAAukQONuRfWaAFqHuvudIYKdGyJcsQQACEOiWwJWO7PPe3ULgc9UR+IYjgV1SHSaeDAEIQCA4gVsd2ef/Ck6PBFsS2MWRwG5sWVpugAAEIJAOAU/HtX8gHez55NRTpKmn86k2SgoBCDgnMMHR4My2mq/vvL6SLN7bnYnMGg0XBCAAgdQJrOPMNq+ceoV4zP9KzkS2rsdKokwQgEB2BGzK3EuQNivHuOxqMIECj5U015HQtkuAOVmEAAQg0IrA7o7s8sxWheX/9RF4yJHQiAZYn45IGQIQKI/ATxzZ5dvKw8KTyiZg5zR7mWqy0JlcEIAABFIn4ClM+2WpV4bn/J/jyAE403NFUTYIQCAbAtc5ssvmzHBFSuBXjoT2z0gZky0IQAAC7RIYLelZR3b5sHYLzn3hCezrSGgvSlokPEJShAAEIFAagcmObLK9Xv56aWR4UOkEpjkTG1sBS5cID4QABAIS2NaZTWZ3VkDxdJrUZs7ENrVTANwPAQhAICIC33Rmk9eKiC1ZGUBgRWdi+9GA8vErBCAAgZQInOjIJs+TND4l+LnldVTjHc0sR4I7N7cKpLwQgIArAtMd2eP7XNWM08L83ZHg7nVaRxQLAhDwT8Cis852ZI//4r/K0i/hKY4EZ6tOl0m/SigBBCCQIYG3OLPFR2VYh8kV+fvORLdNcjVAhiEAAQhIuzmzxXtTqfETsJXzXsIBWzkOiB85OYQABCAwiMBxzmzxhweVkD9ER2B9Z6K7NDrCZAgCEIBAawJ2cI6nwRhxWVrXee13LOVMdM9IGlM7VTIAAQhAoH0CEyXZtjkvDsAcSQu3X3zurJPAg46EZw1ovTphkjYEIACBDgm8z5kNvqHD8nN7jQRs/7wXz9PKsWuNLEkaAhCAQKcEvufMBh/bKQDur4+At50AJ9WHkpQhAAEIdEzgMmcOwFc7JsAHaiNgBzZ4mgF4RNICtdEkYQhAAALtE1hM0gvObPCm7RefO+smsJIz8bEOoG5FkT4EINAuAYtd4mkAZosZJ7RbeO6Lg8DDzkS4VxxYyQUEIACBEQn8zJntvWvE0vLPKAmc50yEl0RJmUxBAAIQ6E/gVme294z+xeO3FAh4Wwj4vKRFUwBPHiEAgWwJrOCs87dXGd/JtjYTLvgHHQrx/QnXB1mHAAT8E/iMQ7u7tf9q81fC1zgU4s/9VRMlggAEHBE4zZndncsCwHTVeb8zMf6b7YDpipGcQ8A5gXGSZjmzuf9TsMGVAAAem0lEQVRwXmeui2cBdDxtR7GybOi6xigcBCCQKoHtHdpbZl1TVaOkXRwK8icJ1wdZhwAE/BI4waG9/Yjf6vJfstUdCvIeSaP8Vx0lhAAEEiKwkKQnHdpb29XAlTCB+xyK8q0J1wdZhwAE/BHwdvqfvW69w1815Vei3zl0AA7MrxopMQQgEDGBoxza2aMj5k3W2iTgcR2Aeaa8BmhTANwGAQhUSmBBSY86dAB2qpQaDw9C4A0OhWnTUxsHoUciEIAABEYm8CGnNvZ1Ixeb/6ZAwEbKDzgU6G9SgE8eIQAB9wTOcmhf/+W+1jIqoMd1AE9zNkBGCqaoEIiTwLKS5jh0AH4RJ25y1Q2BTzsUqL0GsLjbXBCAAATqIvDfTm2r7WrgckJgoqQXHQr1L07qh2JAAAJpErBQuTYY8fT1rCQLa8zliMAVzkTabHAW7IgLAhCAQGgCFo+kaYc8fT8nNEjSq57Ank7FSkyA6rVDChCAwGAChzu1qbsOLip/SZ3AGk7F+pik8alXDvmHAASSIrCUw5P/mrMYKydVE2S2bQK3O3UCprVNgBshAAEI9E7A64zqDb2j4QmxEjjUqQNwK5EBY5Uc+YKAOwJjJNmhZM0Rs6fvvFJ1J9dXCrS5U9FaA9zylWLyEwQgAIHKCHzYsR19R2XUeHDtBMZKesKpeM+rnS4ZgAAEciBwpVMber+k0TlUYM5lPMGpeOdJsnMPuCAAAQhURcDr1j+bRT2kKmg8Nx4CHs+tbr6DOzIezOQEAhBwSOBkpwMos6HrO6wvijSAgL0GeMSpiF+QxBaWARXOrxCAQCkEbIZxrlPbOYOF1KVoJImH2EEPzVGzt++/TKIGyCQEIJAagRMd283vp1YZ5Ld7Ahs7FjKzAN3rgk9CAAJDE5js9DyV5gBwzaGLzV89Ehgl6S7HTgBHWXpULWWCQH0EjnNsL+1AI67MCBzgWNA2C/CazOqT4kIAAtUQeJ2kOY7t5V7VYOOpMRN4o2NB27TWYTHDJ28QgEAyBI5xbivNweHKkMB0x8J+TtKqGdYpRYYABMojYIeoeR79X14eKp6UGoH/duwA2CzAKalVCPmFAASiInCOcxs5NSraZCYogUmSbKTcXAnq8fsmQYmSGAQg4IXAu5zbRgsLP85LZVGO7gh43ttqDs01BLjoThh8CgIZE1hA0nXOHYCDMq5fil4QsNOfPI78+5bp49Q2BCAAgQ4IfDYDu2gLwbkgoBuci/1eprpQOQQg0CaBRSXZyXh9BxHefr6kTRbclgGB3ZyL3Rrv3hnUI0WEAAR6J/DdDOzhR3vHxBO8EFhM0lPORf8M2wK9yJVyQKAyAhbyd7ZzW2iHwS1UGUEenCQBO0rX2zTXwPKcl2TNkGkIQCAUgQszsIMHhoJJOukQWDcD4ZtDwNRXOpokpxAISeBTGdhAO874tSGhklY6BK7OoAE8IGmpdKqEnEIAAgEITJD0UAb27/cBWJJEogR2yKAB2CzAEYnWD9mGAASqIfDrTGzfBtXg46keCIyWdFsGDWGepE09VBhlgAAEeiawsSSzCQPXDHn7/dKeSfEA9wSmZdAQrGHfImkR97VJASEAgZEIWChcswXeOvuhyvP+kUDwPwgYAdsecl8mDeJnVDkEIJA1gZ9nYutulmThjbkg0JLAHpk0Cpv2e19LGtwAAQh4JPDuTKb+bTaAU/88KriiMi0uyU6KGmoaydvfbOXvMhVx5LEQgECcBGwnkIUI92bPhiqPlXPBOKuBXMVK4IBMGoc1mDNjrQTyBQEIVELg5Izs21crIchDXROwUfGzGTWSnV3XJoWDAASaBD6dkV17UtISzYLzHQKdEDg8o4bytKTXdQKHeyEAgeQIrCppZkZ27dvJ1RAZjobA8pnNAvyDY4Oj0R4ZgUDZBBaWdG1Gnb8d+mMHvXFBoGsCB2fUYGw9wAldk+KDEIBAzASOysyWfTnmyiBvaRCYlNmUmTkBu6ZRNeQSAhBok8BnM+v8/02gszaVwW0tCeybWeN5QZKFB+WCAATSJ/CmzF5l2iCGRc3p6zaaEiyayUlZ1nCaX3Zq4KujqQEyAgEIdEPA9vvP6NOum+3b8/d/ShrTDSw+A4HhCNheUs+NZqiyXUJDGk4O/B0C0ROw0LdnZWi3Phx9zZDB5AjYCtp7MmxMdkwoFwQgkB6BH2dor/5OzP/0hJpKjnNbSNOcFbCzEbggAIF0CORqq96TThWR09QI2HulXI7ObHb+9t0ODWJaLTW1kt9cCVgnOCfD0f+FuVY45Q5HwE7Q6ts55vLzbEkbhcNMShCAQBcE3ijJwt/mYpea5TSHZ80uePERCHRMwA7PaQovp++PSlqtY1p8AAIQCEHAdu38K1PbZOsduCAQhMAqGe6rbTo6t0my4EhcEIBAPARsq3JOYX6b9si+25ZlO8KdCwLBCHw3U0/bGpyttJ0QjDQJQQACIxGws+7Pz9geTR0JDv+DQBUEFpF0Z8aN7ioO2qhCVjwTAh0RGJvpXv/mDMCVkkZ1RIybIVASgQ9m7ABYA7xc0viSWPIYCECgMwKjJZ2UsQ2aK+mtnSHjbgiUS+C8jBugOQEXSFqoXKQ8DQIQaEHARr1HZm57Dm/BiH9DoHICkyU9l3lDPIOQwZXrjAQg0JdAjlH+mtP+9v1xFiP3lQM/10lg/8wdAGuQJ+IE1ClB0s6IwAHYG+2UUX1T1MgJ2BT4jTTK+QeP2JkJXBCAQPkEbNr/IOyMLOIfC//K1xdP7IHA+pJepHHqYkm2J5kLAhAoj4At+LODufpOg+f480xJK5WHlSdBoDwCub+XaxqkywjMUZ6oeFL2BGyr38l0/vOdn89lrwYAREvAXgXcREOd31AtKhkRA6OVKhlLhIDZFFtk23Suc/5+EVP/iag242xuLMn2p+bcUJtl/4ekZTPWAkWHQC8E7FWavVJrtqecvz8taeVeYPJZCIQicAiN9mWjZdES7YQyLghAoH0CdrBPrrH9h3J0Pt8+Ou6EQL0Exkm6HSfgZSfgKUlb1VslpA6BZAislfGpfkN1/pcw9Z+MdsloQWAKrwJedgCsUb/QMGqfQR0QgMCIBMxRNod5qI4wx7/NkrTqiMT4JwQiJUDAjsGG7FBJC0RaX2QLAnUS+GzhKOfY0Q9X5h3rrBDShkAvBMZIugJvftBo5lRJdpoiFwQg8FJQm32xE4PshG195IJA0gRs5arFrR7Ow83179cQ0CNpXZP5cghMaJxodw72YZB9vI3jxssRGE+pn8D2NPBBDdwcn0clbVl/9ZADCNRCYB1JM7ANg2yDHa62bi01QqIQqIjAL2nogxq6OQHzJB3IuoCKVMdjYyUwVdKz2IQhbcKXYq008gWBbgnYITl/p8EP2eDNEbBpUJsO5YKAZwJmB36FHRjRDnDQj+cWkHHZLCDOMzT+YRv/XZLWy1gfFN03gddJup72P2z7v0fSRN8SoHS5E9gZAzCsAbCZgOcl7SHJTj/jgoAXAnZ+Pfv7h18MPUfSJl4qm3JAYCQCTAEObwjMCbCvv0haZSSI/A8CCRB4FYf5jOjwN9v7DY21QPZ6hAsC7gnY8Z6XMhPQ0jDYiGmaezVQQK8EtpB0H+28ZTtvOgF/Ij6I16ZAuQYSWEaSvfNqip/vw7M4naOFB8qH3yMmYEGuLOKl7XChXXfGACcgYmGTtXIJ2II3tgK1ZyAekPShcvHzNAiUTuCdkiyIDR1/9wzO53VA6brkgZESsCBBjBTaNxa2XZBzwSMVc8bZWkrSEbTl0hwfZgIybky5FZ1Dg9p3AGxkZbMmFjt9wdyEQnmjI2B71i2oz8OM+kvr/JuzJzgB0cmdDFVBwE7HOwsD0rEBmS5pgyoqhGdCoA0CkyVdSLvtuN02O/h2vuMEtCFEbkmfwBKSbsGYdGxM5ko6XNLS6UuAEiRCYLHG7NP+RcyKdjox7ulshm8gL9YEJNIwyGZvBFaUdC9OQMdOgBmMWQ309lqAY4Z70yCfHp6AzdTZdL8tSB3YSfF7tUyYCRhel/zHEYG1JD2BgenawJoDZbEDzFhzQaAsAptLsldOdPT1McAJKEvNPCdqAraVaDbGpidje62kKVHXMplLgcAbJJ1NW+ypLZbpNOEEpNBqyGPPBD4syd5vl9l4cnyWbRtcv+fa4AG5EbCO/wTaYJT2hzUBubXGTMu7Cw5AaQbockmbZqojit0+gTUkHSvpRdpeaW2vioEHMwHta5o7EyZgq42raEC5PtMcgc0S1gNZr4bAmnT8ydkZnIBq2gJPjYiABRr5DU5A6cbpYklbSTK+XPkS2Kg4rY9onGkONHgdkG/bzabkYyT9ASegdCfAZkFubURx+4KkRbNREwW1CJKflPRX2lQlbSr07CJOAG3aPQEzWmdisCozWDOLE9w4Z8BvU7JgUXsQa6OyNhS64++bHq8D/LZbSlYQWIgtSZUbL1v8dZqk90gajfKSJ2CveGya/2i21lbedvp2yHX8zExA8s2VArQiYDMBvA4I877yvmJWYO1WlcL/oyOwfDHa52jeMG2ljg5/qDSZCYiuKZKhsgngBIQ3ahZYaHdJE8uuTJ5XGoGFJe1QHKw1h9dl7kf8QzkA9jecgNKaFA+KlYC9DrAgN8M1Av5eDRs7ivh0SZ+QZAc4cdVLwM5+2E7ScZKepD1gDwoN8Dqg3nZJ6gEI2EzAHzF6tRk9Wy9gcQVsZmDZAPVNEi8RGCdp62Lf/lPovzb9xz7IYCYAi+GegE17nosRrN0ImjNwkaSvNmYI7EAn4guU2/QmS/p8Mb3/HHqvXe+xd/7N/DETUG475GkRErCZgJMwilEZxYcknVKcTGjHPHN1RsDWWtj7/CMaR/Deibaj0nazc03lOzMBnbU97k6QgB1/+1MMZbSG8oaifmztwKoJ6qvqLNuq/e0bAZl+XATo4SCsatawpNJpl51PZgKqbsE8PwoCe0sirGn8xtNmCGw7p9WXHVKUUyRCe221YfG6xGZJ7sVxjdZxLbsjrvN5OAFRdFFkomoCUyWxDSp+J2CgMby/EbTmwiL2wDRJG0saX7VYKnz+2GK2wxbsWQQ+O2XPtlPyDj89bQ7Uaqq/8zqgwgbPo+MhsI0k27KWakMl3y/VnU2F3y7JRi/2PvybRRx7cw5WkmTnRNR12ULH5YrR/EeLTv6wIlrlLY3ZjRfQH+0vQg0wE1CXxSDdoASsk3g8wgZI516eY2YzPTaFPl3SJUWMgl9J+mHDAfxGsQjx48WCOltUt3nxNaWxon694st00vy7vYe3+6xDt1mIr0uyI6kPl3RqsdPhekn/kvQ82qKDT1QDOAFBuyISq4uAnXPOO9byOlycF1iiAR8awAmoq1ci3aAEbJr26kQ9dYytD2NLPVKPMWqANQFBuyISq4uAhQ62E9FibITkiXpBA2igLg3gBNTVK5FucAL2XpcdAhjbuowt6aK9GDWAExC8KyLBughs2Yhf/wSzAcyGoAE0gAZe1gBOQF09EukGJ2Cx1W+m8b/c+GMclZAnRstoIKwGcAKCd0UkWBeBxThNEAcAJxANoIF+GsAJqKtHIt3gBEZL+hHhg/sZAEZdYUdd8A7L29YA/R+d/ohtni2CwbsiEqyTgIVrfRSjMKJRoKMK21HBu3zeFhNkE0nm+B9Pex+xvTMTUGePRNrBCdixtZdhFEY0CnRK5XdKMA3D1M6ZWKaPVcEJaM0dJ6CPYPjRPwGLLb+vJI5jbW0c6LhglIIGbMrf2rQdGT7wwglorWGcgIGq4Xf3BDaT9ACzAcwGoIGkNXBP44TJjVpYK5wAnIAWEuHfORKwEMIX0wEk3QGkMEIlj607oG4Y/b5xtPRSbRoum/k7mbY+YltnYWCbYuI2PwTsyFeLHjgL4zCicejGQPOZajq+3LnOLNpsp1aImYDWeuR1QKeq4n4XBF7LAkEcAJzA6DVgC/1W6sHi4ATgBPQgHz7qmYBNE+7BOfDRdwK5j4BzLP+zRdscaqFfpzYJJwAnoFPNcH9GBNaSdB2jQRwBNBCFBuyo79eXbH9wAnACSpYUj/NEwI4XPkDSC3QCUXQCOY56cy9zc9RvnXUVFwsDWzsBLAysQnk8MxkCNhtwBU4ATgAaCKoB251T9qh/KKPDTEBrJ4CFgUMph79lQ8B2CkyV9AidQNBOIPcRcI7lt9gc1tZCXjgBOAEh9UZaiRKwMKPHcrAQTgCOYOkamFe0rYk12QacAJyAmqRHsqkRmCLpFjqB0juBHEe8lFmaLmmDCIwATgBOQAQyJAspEFi4sV1wL0lP4QjgCKCBrjRgr9S+IMkW48VysTCwtRPAwsBY1Eo+aidgU5aHSnqRTqCrToARcGuD642R7aw5QtKk2lvv0BlgJqC1JlkYOLR2+GumBN4g6RycAJwANDCiBiyS3xoJ2AicAJyABGRKFmMjsLmkG+kERuwEvI1oKU/rzuJmSVvF1lhb5AcnoHW9MhPQQkT8Oz8CY4t3m/fhCOAIZK6BOyXtKMk60xQv1gS0dgJYE5Cisslz5QQWLE4tuz/zToARcmsj6o3RvZJ2b0TTtIiaqV/MBLTWLzMBqauc/FdGYHxhDB/EEWBGwLkGHi4O7VmkstZUz4NxAnAC6lEeqbohsGhhHB933gl4G81SntbG/9FGK91X0mJuWuvgguAEtNYBMwGDdcNfINCPwFKSvimJGYHWBoXON25GNtX/Vecdf9/Gy5qA1npkTUBfxfAzBIYhYGsELO45UQVbGxUcgbgY3V681rKAWLldzAS01iIzAbm1CsrbNYEFJG0t6SpeDbBGIHINXC5ph4RX9XfdSAd8ECcAJ2CAJPgVAr0T2LQIKDQ38o6AEXlrA+iFkUW5/L2kDXuXt6sn8DqgdRvgdYAryVOYUASWbyRki6psVbWXjoRypFWXtkblQEmvCSX6BNNhJqC1pnkdkKCwyXIcBGwftU25WghVOlAYhNDAtUX8ihzf73fT6nECWrdLnIBulMVnINCHwDqSjpQ0C2cAZ6hkDcyU9AtJa/bRGz+2T4DXAa2dAF4HtK8n7oTAsAQsyIrNCpzV2E44p+SOIMQIkzRaG8sQjGydiS3qmybJYlRw9UaAmYDWumYmoDeN8WkI9CNgawUs5Or1OALMCrSpgZsaCrL1JSv3UxK/lEEAJwAnoAwd8QwIdEzgLZIOlfRQmx1BiFEmabQ2iCEY2XkUB0uy10hc1RLgdUBrzfM6oFoN8vSMCVhcgY2LFdy34QxkOzNwd+EQ2hHV1ilxhSPATEBrJ4DXAeH0SEoZE1ijUXab8rXV3SFGm6RRH+cZRadvDuCojDUfQ9FxAlq3A5yAGJRKHrIhsHpxINHFkp7HIUjeIZpdbBH9uqTVslFxOgXldUBrJ4DXAenomZw6IjCusQrcpoct2IvNDszDIUjCIbBR/hHFThDPp+95aWrMBLR2ApgJ8KJ2ypEsAYv49jlJJze2htmiMaby42BgJ+6dKGlnSSskq668M85MQOu2xExA3m2E0kdGYLlilGk7C2yGgPMJWhuxXp0mi7tv2/SOLfbn2/oNLh8EmAlo3X6YCfChdUrhkMASkrZqnAT3PUnnMktQygzJvyWd3Viw911J75G0uEPdUKRXCDAT0NoJYCbgFb3wEwSiJrBUseXQghHZqNVGrzaK7XUk7PHz9lrFojfajgw7/nnZqGuWzFVFgJmA1vaBmYCq1MdzIVAxgfGNUa0FJfpY47XBtyQd3xjdXi3psQwcg0eLspoztI+kjzQ6/fUkGRMuCDQJMBPQ2glgJqCpFr5DwAmBiZLeLulTkvYs9qyfLunKxiI3W+z2QsROguXtHklXNA7NOa3I+zckfULS+pImOKkjihGGAE4ATkAYpZEKBBIhYMFrbGrcQtZuUSxCtMNqrKPdX9Jhkk6QdE5xkI0tTrSvGxtOhW2Psy/rpB8f8GXORfP/dm/zc9aZ27Nslb2dhmdpWFqWph24ZHlYt8gTgXUSEVFC2cQJwAlISK5kFQIQgAAEyiTAmoDWTgBrAspUHM+CAAQgAIFoCOAE4AREI0YyAgEIQAACYQngBOAEhFUcqUEAAhCAQDQEcAJwAqIRIxmBAAQgAIGwBHACcALCKo7UIAABCEAgGgI4ATgB0YiRjEAAAhCAQFgCOAE4AWEVR2oQgAAEIBANAZwAnIBoxEhGIAABCEAgLAGcAJyAsIojNQhAAAIQiIYATgBOQDRiJCMQgAAEIBCWAE4ATkBYxZEaBCAAAQhEQwAnACcgGjGSEQhAAAIQCEsAJwAnIKziSA0CEIAABKIhgBOAExCNGMkIBCAAAQiEJYATgBMQVnGkBgEIQAAC0RDACcAJiEaMZAQCEIAABMISwAnACQirOFKDAAQgAIFoCOAE4AREI0YyAgEIQAACYQngBOAEhFUcqUEAAhCAQDQEcAJwAqIRIxmBAAQgAIGwBHACcALCKo7UIAABCEAgGgI4ATgB0YiRjEAAAhCAQFgCOAE4AWEVR2oQgAAEIBANAZwAnIBoxEhGIAABCEAgLAGcAJyAsIojNQhAAAIQiIYATgBOQDRiJCMQgAAEIBCWAE4ATkBYxZEaBCAAAQhEQwAnACcgGjGSEQhAAAIQCEsAJwAnIKziSA0CEIAABKIhgBOAExCNGMkIBCAAAQiEJYATgBMQVnGkBgEIQAAC0RDACcAJiEaMZAQCEIAABMISwAnACQirOFKDAAQgAIFoCOAE4AREI0YyAgEIQAACYQngBOAEhFUcqUEAAhCAQDQEcAJwAqIRIxmBAAQgAIGwBHACcALCKo7UIAABCEAgGgI4ATgB0YiRjEAAAhCAQFgCOAE4AWEVR2oQgAAEIBANAZwAnIBoxEhGIAABCEAgLAGcAJyAsIojNQhAAAIQiIYATgBOQDRiJCMQgAAEIBCWAE4ATkBYxZEaBCAAAQhEQwAnACcgGjGSEQhAAAIQCEsAJwAnIKziSA0CEIAABKIhgBOAExCNGMkIBCAAAQiEJYATgBMQVnGkBgEIQAAC0RDACcAJiEaMZAQCEIAABMISwAnACQirOFKDAAQgAIFoCOAE4AREI0YyAgEIQAACYQngBOAEhFUcqUEAAhCAQDQEcAJwAqIRIxmBAAQgAIGwBHACcALCKo7UIAABCEAgGgI4ATgB0YiRjEAAAhCAQFgCOAE4AWEVR2oQgAAEIBANAZwAnIBoxEhGIAABCEAgLIExkk5W647wPxnfc76kBcNWC6lBAAIQgAAEqifATEBrB+hESaOqrwpSgAAEIAABCIQlwExAaydgn7BVQmoQgAAEIACBMASYCRjZCZgraUqYqiAVCEAAAhCAQFgCzASM7ATcJWl82CohNQhAAAIQgEAYAswEjOwE7BemGkgFAhCAAAQgEJ4AMwHDOwHPSloxfJWQIgQgAAEIQCAMAWYChncCDgpTBaQCAQhAAAIQqIcAMwFDOwFPSVqyniohVQhAAAIQgEAYAswEDO0ETAuDn1QgAAEIQAAC9RHACRjsBFxUX3WQMgQgAAEIQCAcAV4H9HcCXpS0RDj8pAQBCEAAAhCojwAzAf2dgPfWVxWkDAEIQAACEAhLgJmAV5yAH4RFT2oQgAAEIACBegkwE/CSE3BavdVA6hCAAAQgAIHwBJgJkKaHx06KEIAABCAAgfoJ5D4T8ED9VUAOIAABCEAAAvUQyNkJeLoe5KQKAQhAAAIQiINArq8D5sSBn1xAAAIQgAAE6iOQ40zAE/XhJmUIQAACEIBAPARymwm4Jx705AQCEIAABCBQL4GcZgIurxc1qUMAAhCAAATiIpCLE3BMXNjJDQQgAAEIQKB+Ajm8Dvha/ZjJAQQgAAEIQCA+At5nAt4WH3JyBAEIQAACEIiDgNeZgCclWdm4IAABCEAAAhAYhoDHmQDe/w9T2fwZAhCAAAQg0JeAt5kAjgLuW7v8DAEIQAACEBiBgJeZgBmSrCxcEIAABCAAAQi0ScCDE/CFNsvKbRCAAAQgAAEI9CGQshNwp6SF+5SFHyEAAQhAAAIQ6IBAqk7A9h2UkVshAAEIQAACEBiCQGoLA88eogz8CQIQgAAEIACBLgikMhPwkKRluygfH4EABCAAAQhAYBgCsc8EPC9p02Hyzp8hAAEIQAACEOiBQKwzAfMkfbqHcvFRCEAAAhCAAARaELCZgJMk/SeSL+v8v9giz/wbAhCAAAQgAIESCCwg6eAIHIA5kqaWUB4eAQEIQAACEIBABwR2lfRcTY7AfZLe0UFeuRUCEIAABCAAgRIJrC3pxsBOwB8lLVNiGXgUBCAAAQhAAAJdEFhQ0tclPVGxI3CXpG27yB8fgQAEIAABCECgQgKTJO0n6eGSHYHbJO0kaWyFeefREIAABCAAAQj0SGARSZ+QdIak2V06AxbU5yhJUySN6jE/fBwCEIAABCAAgcAEzBmwxXp7SjpW0mWS7ihmCR6X9KCkmxsd/SWN9/q/lLRbw3F4U5md/v8D2ZGddClF3jIAAAAASUVORK5CYII=;" vertex="1" parent="1">
          <mxGeometry x="52" y="68" width="22" height="22" as="geometry" />
        </mxCell>
        <mxCell id="iHRBWM1eIZJ4OxDIeNG5-7" value="" style="rounded=0;whiteSpace=wrap;html=1;fillColor=#96B6C5;strokeColor=#96B6C5;" vertex="1" parent="1">
          <mxGeometry x="2" y="865" width="696" height="234" as="geometry" />
        </mxCell>
        <mxCell id="iHRBWM1eIZJ4OxDIeNG5-8" value="&lt;b style=&quot;color: rgb(0, 56, 112);&quot;&gt;&lt;span style=&quot;font-family: &amp;quot;Times New Roman&amp;quot;; text-align: left; font-size: 16px;&quot;&gt;Copyright © 2024 品牌名稱&amp;nbsp;&lt;/span&gt;&lt;span style=&quot;font-family: &amp;quot;Times New Roman&amp;quot;; text-align: left; font-size: 16px; box-sizing: border-box; backface-visibility: hidden;&quot;&gt;All Rights Reserved&lt;/span&gt;&lt;/b&gt;" style="text;html=1;align=center;verticalAlign=middle;whiteSpace=wrap;rounded=0;" vertex="1" parent="1">
          <mxGeometry x="151" y="1042" width="398" height="30" as="geometry" />
        </mxCell>
        <mxCell id="iHRBWM1eIZJ4OxDIeNG5-9" value="&lt;font color=&quot;#003870&quot;&gt;&lt;span style=&quot;font-size: 14px;&quot;&gt;&lt;b&gt;HELP&lt;/b&gt;&lt;/span&gt;&lt;/font&gt;&lt;div style=&quot;line-height: 180%;&quot;&gt;&lt;font color=&quot;#003870&quot;&gt;&lt;span style=&quot;font-size: 14px;&quot;&gt;&lt;b&gt;&lt;br&gt;&lt;/b&gt;&lt;/span&gt;&lt;/font&gt;&lt;/div&gt;&lt;div style=&quot;line-height: 180%;&quot;&gt;&lt;font color=&quot;#003870&quot;&gt;&lt;span style=&quot;font-size: 14px;&quot;&gt;&lt;b&gt;FAQ&lt;/b&gt;&lt;/span&gt;&lt;/font&gt;&lt;/div&gt;&lt;div style=&quot;line-height: 180%;&quot;&gt;&lt;font color=&quot;#003870&quot;&gt;&lt;span style=&quot;font-size: 14px;&quot;&gt;&lt;b&gt;Delivary &amp;amp; Shipping&lt;/b&gt;&lt;/span&gt;&lt;/font&gt;&lt;/div&gt;&lt;div style=&quot;line-height: 180%;&quot;&gt;&lt;font color=&quot;#003870&quot;&gt;&lt;span style=&quot;font-size: 14px;&quot;&gt;&lt;b&gt;Payment&lt;/b&gt;&lt;/span&gt;&lt;/font&gt;&lt;/div&gt;&lt;div style=&quot;line-height: 180%;&quot;&gt;&lt;font color=&quot;#003870&quot;&gt;&lt;span style=&quot;font-size: 14px;&quot;&gt;&lt;b&gt;Contact us&lt;/b&gt;&lt;/span&gt;&lt;/font&gt;&lt;/div&gt;" style="text;html=1;align=center;verticalAlign=middle;whiteSpace=wrap;rounded=0;" vertex="1" parent="1">
          <mxGeometry x="193" y="892" width="314" height="127" as="geometry" />
        </mxCell>
        <mxCell id="iHRBWM1eIZJ4OxDIeNG5-46" value="" style="group" vertex="1" connectable="0" parent="1">
          <mxGeometry x="26" y="428" width="646" height="176" as="geometry" />
        </mxCell>
        <mxCell id="iHRBWM1eIZJ4OxDIeNG5-34" value="" style="group" vertex="1" connectable="0" parent="iHRBWM1eIZJ4OxDIeNG5-46">
          <mxGeometry width="140" height="166" as="geometry" />
        </mxCell>
        <mxCell id="iHRBWM1eIZJ4OxDIeNG5-35" value="" style="rounded=0;whiteSpace=wrap;html=1;strokeColor=#FFFFFF;" vertex="1" parent="iHRBWM1eIZJ4OxDIeNG5-34">
          <mxGeometry width="140" height="166" as="geometry" />
        </mxCell>
        <mxCell id="iHRBWM1eIZJ4OxDIeNG5-36" value="&lt;font color=&quot;#ffffff&quot; style=&quot;font-size: 15px;&quot;&gt;&lt;b&gt;商品圖&lt;/b&gt;&lt;/font&gt;" style="rounded=0;whiteSpace=wrap;html=1;fillColor=#BFBFBF;strokeColor=#BFBFBF;" vertex="1" parent="iHRBWM1eIZJ4OxDIeNG5-34">
          <mxGeometry x="15.200000000000001" y="17.8411214953271" width="109.60000000000001" height="106.27102803738318" as="geometry" />
        </mxCell>
        <mxCell id="iHRBWM1eIZJ4OxDIeNG5-37" value="" style="group" vertex="1" connectable="0" parent="iHRBWM1eIZJ4OxDIeNG5-46">
          <mxGeometry x="169" y="5" width="140" height="166" as="geometry" />
        </mxCell>
        <mxCell id="iHRBWM1eIZJ4OxDIeNG5-38" value="" style="rounded=0;whiteSpace=wrap;html=1;strokeColor=#FFFFFF;" vertex="1" parent="iHRBWM1eIZJ4OxDIeNG5-37">
          <mxGeometry width="140" height="166" as="geometry" />
        </mxCell>
        <mxCell id="iHRBWM1eIZJ4OxDIeNG5-39" value="&lt;font color=&quot;#ffffff&quot; style=&quot;font-size: 15px;&quot;&gt;&lt;b&gt;商品圖&lt;/b&gt;&lt;/font&gt;" style="rounded=0;whiteSpace=wrap;html=1;fillColor=#BFBFBF;strokeColor=#BFBFBF;" vertex="1" parent="iHRBWM1eIZJ4OxDIeNG5-37">
          <mxGeometry x="15.200000000000001" y="17.8411214953271" width="109.60000000000001" height="106.27102803738318" as="geometry" />
        </mxCell>
        <mxCell id="iHRBWM1eIZJ4OxDIeNG5-40" value="" style="group" vertex="1" connectable="0" parent="iHRBWM1eIZJ4OxDIeNG5-46">
          <mxGeometry x="337" y="7" width="140" height="166" as="geometry" />
        </mxCell>
        <mxCell id="iHRBWM1eIZJ4OxDIeNG5-41" value="" style="rounded=0;whiteSpace=wrap;html=1;strokeColor=#FFFFFF;" vertex="1" parent="iHRBWM1eIZJ4OxDIeNG5-40">
          <mxGeometry width="140" height="166" as="geometry" />
        </mxCell>
        <mxCell id="iHRBWM1eIZJ4OxDIeNG5-42" value="&lt;font color=&quot;#ffffff&quot; style=&quot;font-size: 15px;&quot;&gt;&lt;b&gt;商品圖&lt;/b&gt;&lt;/font&gt;" style="rounded=0;whiteSpace=wrap;html=1;fillColor=#BFBFBF;strokeColor=#BFBFBF;" vertex="1" parent="iHRBWM1eIZJ4OxDIeNG5-40">
          <mxGeometry x="15.200000000000001" y="17.8411214953271" width="109.60000000000001" height="106.27102803738318" as="geometry" />
        </mxCell>
        <mxCell id="iHRBWM1eIZJ4OxDIeNG5-43" value="" style="group" vertex="1" connectable="0" parent="iHRBWM1eIZJ4OxDIeNG5-46">
          <mxGeometry x="506" y="10" width="140" height="166" as="geometry" />
        </mxCell>
        <mxCell id="iHRBWM1eIZJ4OxDIeNG5-44" value="" style="rounded=0;whiteSpace=wrap;html=1;strokeColor=#FFFFFF;" vertex="1" parent="iHRBWM1eIZJ4OxDIeNG5-43">
          <mxGeometry width="140" height="166" as="geometry" />
        </mxCell>
        <mxCell id="iHRBWM1eIZJ4OxDIeNG5-45" value="&lt;font color=&quot;#ffffff&quot; style=&quot;font-size: 15px;&quot;&gt;&lt;b&gt;商品圖&lt;/b&gt;&lt;/font&gt;" style="rounded=0;whiteSpace=wrap;html=1;fillColor=#BFBFBF;strokeColor=#BFBFBF;" vertex="1" parent="iHRBWM1eIZJ4OxDIeNG5-43">
          <mxGeometry x="15.200000000000001" y="17.8411214953271" width="109.60000000000001" height="106.27102803738318" as="geometry" />
        </mxCell>
        <mxCell id="iHRBWM1eIZJ4OxDIeNG5-47" value="" style="group" vertex="1" connectable="0" parent="1">
          <mxGeometry x="27" y="211" width="646" height="176" as="geometry" />
        </mxCell>
        <mxCell id="iHRBWM1eIZJ4OxDIeNG5-18" value="" style="group" vertex="1" connectable="0" parent="iHRBWM1eIZJ4OxDIeNG5-47">
          <mxGeometry width="140" height="166" as="geometry" />
        </mxCell>
        <mxCell id="iHRBWM1eIZJ4OxDIeNG5-12" value="" style="rounded=0;whiteSpace=wrap;html=1;strokeColor=#FFFFFF;" vertex="1" parent="iHRBWM1eIZJ4OxDIeNG5-18">
          <mxGeometry width="140" height="166" as="geometry" />
        </mxCell>
        <mxCell id="iHRBWM1eIZJ4OxDIeNG5-15" value="&lt;font color=&quot;#ffffff&quot; style=&quot;font-size: 15px;&quot;&gt;&lt;b&gt;商品圖&lt;/b&gt;&lt;/font&gt;" style="rounded=0;whiteSpace=wrap;html=1;fillColor=#BFBFBF;strokeColor=#BFBFBF;" vertex="1" parent="iHRBWM1eIZJ4OxDIeNG5-18">
          <mxGeometry x="15.200000000000001" y="17.8411214953271" width="109.60000000000001" height="106.27102803738318" as="geometry" />
        </mxCell>
        <mxCell id="iHRBWM1eIZJ4OxDIeNG5-25" value="" style="group" vertex="1" connectable="0" parent="iHRBWM1eIZJ4OxDIeNG5-47">
          <mxGeometry x="169" y="5" width="140" height="166" as="geometry" />
        </mxCell>
        <mxCell id="iHRBWM1eIZJ4OxDIeNG5-26" value="" style="rounded=0;whiteSpace=wrap;html=1;strokeColor=#FFFFFF;" vertex="1" parent="iHRBWM1eIZJ4OxDIeNG5-25">
          <mxGeometry width="140" height="166" as="geometry" />
        </mxCell>
        <mxCell id="iHRBWM1eIZJ4OxDIeNG5-27" value="&lt;font color=&quot;#ffffff&quot; style=&quot;font-size: 15px;&quot;&gt;&lt;b&gt;商品圖&lt;/b&gt;&lt;/font&gt;" style="rounded=0;whiteSpace=wrap;html=1;fillColor=#BFBFBF;strokeColor=#BFBFBF;" vertex="1" parent="iHRBWM1eIZJ4OxDIeNG5-25">
          <mxGeometry x="15.200000000000001" y="17.8411214953271" width="109.60000000000001" height="106.27102803738318" as="geometry" />
        </mxCell>
        <mxCell id="iHRBWM1eIZJ4OxDIeNG5-28" value="" style="group" vertex="1" connectable="0" parent="iHRBWM1eIZJ4OxDIeNG5-47">
          <mxGeometry x="337" y="7" width="140" height="166" as="geometry" />
        </mxCell>
        <mxCell id="iHRBWM1eIZJ4OxDIeNG5-29" value="" style="rounded=0;whiteSpace=wrap;html=1;strokeColor=#FFFFFF;" vertex="1" parent="iHRBWM1eIZJ4OxDIeNG5-28">
          <mxGeometry width="140" height="166" as="geometry" />
        </mxCell>
        <mxCell id="iHRBWM1eIZJ4OxDIeNG5-30" value="&lt;font color=&quot;#ffffff&quot; style=&quot;font-size: 15px;&quot;&gt;&lt;b&gt;商品圖&lt;/b&gt;&lt;/font&gt;" style="rounded=0;whiteSpace=wrap;html=1;fillColor=#BFBFBF;strokeColor=#BFBFBF;" vertex="1" parent="iHRBWM1eIZJ4OxDIeNG5-28">
          <mxGeometry x="15.200000000000001" y="17.8411214953271" width="109.60000000000001" height="106.27102803738318" as="geometry" />
        </mxCell>
        <mxCell id="iHRBWM1eIZJ4OxDIeNG5-31" value="" style="group" vertex="1" connectable="0" parent="iHRBWM1eIZJ4OxDIeNG5-47">
          <mxGeometry x="506" y="10" width="140" height="166" as="geometry" />
        </mxCell>
        <mxCell id="iHRBWM1eIZJ4OxDIeNG5-32" value="" style="rounded=0;whiteSpace=wrap;html=1;strokeColor=#FFFFFF;" vertex="1" parent="iHRBWM1eIZJ4OxDIeNG5-31">
          <mxGeometry width="140" height="166" as="geometry" />
        </mxCell>
        <mxCell id="iHRBWM1eIZJ4OxDIeNG5-33" value="&lt;font color=&quot;#ffffff&quot; style=&quot;font-size: 15px;&quot;&gt;&lt;b&gt;商品圖&lt;/b&gt;&lt;/font&gt;" style="rounded=0;whiteSpace=wrap;html=1;fillColor=#BFBFBF;strokeColor=#BFBFBF;" vertex="1" parent="iHRBWM1eIZJ4OxDIeNG5-31">
          <mxGeometry x="15.200000000000001" y="17.8411214953271" width="109.60000000000001" height="106.27102803738318" as="geometry" />
        </mxCell>
        <mxCell id="iHRBWM1eIZJ4OxDIeNG5-60" value="" style="group" vertex="1" connectable="0" parent="1">
          <mxGeometry x="27" y="640" width="646" height="176" as="geometry" />
        </mxCell>
        <mxCell id="iHRBWM1eIZJ4OxDIeNG5-61" value="" style="group" vertex="1" connectable="0" parent="iHRBWM1eIZJ4OxDIeNG5-60">
          <mxGeometry width="140" height="166" as="geometry" />
        </mxCell>
        <mxCell id="iHRBWM1eIZJ4OxDIeNG5-62" value="" style="rounded=0;whiteSpace=wrap;html=1;strokeColor=#FFFFFF;" vertex="1" parent="iHRBWM1eIZJ4OxDIeNG5-61">
          <mxGeometry width="140" height="166" as="geometry" />
        </mxCell>
        <mxCell id="iHRBWM1eIZJ4OxDIeNG5-63" value="&lt;font color=&quot;#ffffff&quot; style=&quot;font-size: 15px;&quot;&gt;&lt;b&gt;商品圖&lt;/b&gt;&lt;/font&gt;" style="rounded=0;whiteSpace=wrap;html=1;fillColor=#BFBFBF;strokeColor=#BFBFBF;" vertex="1" parent="iHRBWM1eIZJ4OxDIeNG5-61">
          <mxGeometry x="15.200000000000001" y="17.8411214953271" width="109.60000000000001" height="106.27102803738318" as="geometry" />
        </mxCell>
        <mxCell id="iHRBWM1eIZJ4OxDIeNG5-64" value="" style="group" vertex="1" connectable="0" parent="iHRBWM1eIZJ4OxDIeNG5-60">
          <mxGeometry x="169" y="5" width="140" height="166" as="geometry" />
        </mxCell>
        <mxCell id="iHRBWM1eIZJ4OxDIeNG5-65" value="" style="rounded=0;whiteSpace=wrap;html=1;strokeColor=#FFFFFF;" vertex="1" parent="iHRBWM1eIZJ4OxDIeNG5-64">
          <mxGeometry width="140" height="166" as="geometry" />
        </mxCell>
        <mxCell id="iHRBWM1eIZJ4OxDIeNG5-66" value="&lt;font color=&quot;#ffffff&quot; style=&quot;font-size: 15px;&quot;&gt;&lt;b&gt;商品圖&lt;/b&gt;&lt;/font&gt;" style="rounded=0;whiteSpace=wrap;html=1;fillColor=#BFBFBF;strokeColor=#BFBFBF;" vertex="1" parent="iHRBWM1eIZJ4OxDIeNG5-64">
          <mxGeometry x="15.200000000000001" y="17.8411214953271" width="109.60000000000001" height="106.27102803738318" as="geometry" />
        </mxCell>
        <mxCell id="iHRBWM1eIZJ4OxDIeNG5-67" value="" style="group" vertex="1" connectable="0" parent="iHRBWM1eIZJ4OxDIeNG5-60">
          <mxGeometry x="337" y="7" width="140" height="166" as="geometry" />
        </mxCell>
        <mxCell id="iHRBWM1eIZJ4OxDIeNG5-68" value="" style="rounded=0;whiteSpace=wrap;html=1;strokeColor=#FFFFFF;" vertex="1" parent="iHRBWM1eIZJ4OxDIeNG5-67">
          <mxGeometry width="140" height="166" as="geometry" />
        </mxCell>
        <mxCell id="iHRBWM1eIZJ4OxDIeNG5-69" value="&lt;font color=&quot;#ffffff&quot; style=&quot;font-size: 15px;&quot;&gt;&lt;b&gt;商品圖&lt;/b&gt;&lt;/font&gt;" style="rounded=0;whiteSpace=wrap;html=1;fillColor=#BFBFBF;strokeColor=#BFBFBF;" vertex="1" parent="iHRBWM1eIZJ4OxDIeNG5-67">
          <mxGeometry x="15.200000000000001" y="17.8411214953271" width="109.60000000000001" height="106.27102803738318" as="geometry" />
        </mxCell>
        <mxCell id="iHRBWM1eIZJ4OxDIeNG5-70" value="" style="group" vertex="1" connectable="0" parent="iHRBWM1eIZJ4OxDIeNG5-60">
          <mxGeometry x="506" y="10" width="140" height="166" as="geometry" />
        </mxCell>
        <mxCell id="iHRBWM1eIZJ4OxDIeNG5-71" value="" style="rounded=0;whiteSpace=wrap;html=1;strokeColor=#FFFFFF;" vertex="1" parent="iHRBWM1eIZJ4OxDIeNG5-70">
          <mxGeometry width="140" height="166" as="geometry" />
        </mxCell>
        <mxCell id="iHRBWM1eIZJ4OxDIeNG5-72" value="&lt;font color=&quot;#ffffff&quot; style=&quot;font-size: 15px;&quot;&gt;&lt;b&gt;商品圖&lt;/b&gt;&lt;/font&gt;" style="rounded=0;whiteSpace=wrap;html=1;fillColor=#BFBFBF;strokeColor=#BFBFBF;" vertex="1" parent="iHRBWM1eIZJ4OxDIeNG5-70">
          <mxGeometry x="15.200000000000001" y="17.8411214953271" width="109.60000000000001" height="106.27102803738318" as="geometry" />
        </mxCell>
      </root>
    </mxGraphModel>
  </diagram>
</mxfile>
